<?xml version="1.0" encoding="utf-8"?>
<!-- Generator: Adobe Illustrator 24.2.1, SVG Export Plug-In . SVG Version: 6.00 Build 0)  -->
<svg version="1.1" id="Layer_1" xmlns="http://www.w3.org/2000/svg" xmlns:xlink="http://www.w3.org/1999/xlink" x="0px" y="0px"
	 viewBox="0 0 1920 1080" style="enable-background:new 0 0 1920 1080;" xml:space="preserve">
<style type="text/css">
	.st0{fill:#E73F1B;}
</style>
<g>
	<g>
		<polygon class="st0" points="1652.24,729.69 1574.68,819.13 1725.31,1080 1920.67,1080 1920.67,884.65 		"/>
	</g>
	<g>
		<polygon class="st0" points="1791.91,568.6 1705.88,667.81 1690.14,685.94 1920.67,819.02 1920.67,568.6 		"/>
	</g>
	<g>
		<polygon class="st0" points="1690.14,394.44 1791.91,511.78 1920.67,511.78 1920.67,261.36 		"/>
	</g>
	<g>
		<polygon class="st0" points="1725.31,0.38 1574.68,261.31 1652.24,350.75 1920.67,195.73 1920.67,0.38 		"/>
	</g>
	<g>
		<polygon class="st0" points="133.93,568.6 2.05,568.6 2.05,819.07 234.68,684.8 		"/>
	</g>
	<g>
		<polygon class="st0" points="272.58,728.5 2.05,884.7 2.05,1080 197.4,1080 349.29,816.91 		"/>
	</g>
	<g>
		<polygon class="st0" points="2.05,261.31 2.05,511.78 133.93,511.78 234.68,395.64 		"/>
	</g>
	<g>
		<polygon class="st0" points="197.4,0.38 2.05,0.38 2.05,195.73 272.63,351.94 349.29,263.58 		"/>
	</g>
</g>
</svg>
