<?xml version="1.0" encoding="utf-8"?>
<!-- Generator: Adobe Illustrator 24.2.1, SVG Export Plug-In . SVG Version: 6.00 Build 0)  -->
<svg version="1.1" id="Layer_1" xmlns="http://www.w3.org/2000/svg" xmlns:xlink="http://www.w3.org/1999/xlink" x="0px" y="0px"
	 viewBox="0 0 1920 1080" style="enable-background:new 0 0 1920 1080;" xml:space="preserve">
<style type="text/css">
	.st0{fill:#EFA000;}
	.st1{fill:#009B89;}
</style>
<g>
	<path class="st0" d="M179.86,410H407.5V182.46C360.4,282.18,279.58,363,179.86,410z"/>
	<path class="st1" d="M0.13,157.63v251.86c219.16-11.44,395.41-187.8,406.86-406.96H155.23C145.01,83.25,80.85,147.41,0.13,157.63z"
		/>
</g>
<g>
	<path class="st0" d="M1737.38,260.48h-229.9v229.8C1555.05,389.56,1636.67,307.94,1737.38,260.48z"/>
	<path class="st1" d="M1918.88,515.35V260.99c-221.34,11.56-399.33,189.66-410.89,410.99h254.25
		C1772.56,590.47,1837.36,525.67,1918.88,515.35z"/>
</g>
<g>
	<path class="st0" d="M1694.86,1079h227.64V851.46C1875.4,951.18,1794.58,1032,1694.86,1079z"/>
	<path class="st1" d="M1515.13,826.63v251.86c219.16-11.44,395.41-187.8,406.86-406.96h-251.76
		C1660.01,752.25,1595.85,816.41,1515.13,826.63z"/>
</g>
<rect x="291" y="2" class="st1" width="1631" height="64"/>
<rect x="0" y="1016" class="st1" width="1515" height="64"/>
</svg>
