<?xml version="1.0" encoding="utf-8"?>
<!-- Generator: Adobe Illustrator 24.2.1, SVG Export Plug-In . SVG Version: 6.00 Build 0)  -->
<svg version="1.1" id="Layer_1" xmlns="http://www.w3.org/2000/svg" xmlns:xlink="http://www.w3.org/1999/xlink" x="0px" y="0px"
	 viewBox="0 0 1920 1080" style="enable-background:new 0 0 1920 1080;" xml:space="preserve">
<style type="text/css">
	.st0{fill:#EFA000;}
	.st1{fill:#00A38C;}
</style>
<rect y="14" class="st0" width="1920" height="62"/>
<path class="st1" d="M36.78,1018.72l-26.67,30.77l26.67,30.77l26.7-30.77L36.78,1018.72z M19.09,1049.93l18.07-20.85l18.1,20.85
	l-18.1,20.85L19.09,1049.93z"/>
<g>
	<g>
		<polygon class="st0" points="49.39,1049.93 37.16,1064.02 24.93,1049.93 37.16,1035.82 		"/>
	</g>
</g>
<path class="st1" d="M92.78,1018.72l-26.67,30.77l26.67,30.77l26.7-30.77L92.78,1018.72z M75.09,1049.93l18.07-20.85l18.1,20.85
	l-18.1,20.85L75.09,1049.93z"/>
<g>
	<g>
		<polygon class="st0" points="105.39,1049.93 93.16,1064.02 80.93,1049.93 93.16,1035.82 		"/>
	</g>
</g>
<path class="st1" d="M148.78,1018.72l-26.67,30.77l26.67,30.77l26.7-30.77L148.78,1018.72z M131.09,1049.93l18.07-20.85l18.1,20.85
	l-18.1,20.85L131.09,1049.93z"/>
<g>
	<g>
		<polygon class="st0" points="161.39,1049.93 149.16,1064.02 136.93,1049.93 149.16,1035.82 		"/>
	</g>
</g>
<path class="st1" d="M204.78,1018.72l-26.67,30.77l26.67,30.77l26.7-30.77L204.78,1018.72z M187.09,1049.93l18.07-20.85l18.1,20.85
	l-18.1,20.85L187.09,1049.93z"/>
<g>
	<g>
		<polygon class="st0" points="217.39,1049.93 205.16,1064.02 192.93,1049.93 205.16,1035.82 		"/>
	</g>
</g>
<path class="st1" d="M260.78,1018.72l-26.67,30.77l26.67,30.77l26.7-30.77L260.78,1018.72z M243.09,1049.93l18.07-20.85l18.1,20.85
	l-18.1,20.85L243.09,1049.93z"/>
<g>
	<g>
		<polygon class="st0" points="273.39,1049.93 261.16,1064.02 248.93,1049.93 261.16,1035.82 		"/>
	</g>
</g>
<path class="st1" d="M316.78,1018.72l-26.67,30.77l26.67,30.77l26.7-30.77L316.78,1018.72z M299.09,1049.93l18.07-20.85l18.1,20.85
	l-18.1,20.85L299.09,1049.93z"/>
<g>
	<g>
		<polygon class="st0" points="329.39,1049.93 317.16,1064.02 304.93,1049.93 317.16,1035.82 		"/>
	</g>
</g>
<path class="st1" d="M372.78,1018.72l-26.67,30.77l26.67,30.77l26.7-30.77L372.78,1018.72z M355.09,1049.93l18.07-20.85l18.1,20.85
	l-18.1,20.85L355.09,1049.93z"/>
<g>
	<g>
		<polygon class="st0" points="385.39,1049.93 373.16,1064.02 360.93,1049.93 373.16,1035.82 		"/>
	</g>
</g>
<path class="st1" d="M428.78,1018.72l-26.67,30.77l26.67,30.77l26.7-30.77L428.78,1018.72z M411.09,1049.93l18.07-20.85l18.1,20.85
	l-18.1,20.85L411.09,1049.93z"/>
<g>
	<g>
		<polygon class="st0" points="441.39,1049.93 429.16,1064.02 416.93,1049.93 429.16,1035.82 		"/>
	</g>
</g>
<path class="st1" d="M484.78,1018.72l-26.67,30.77l26.67,30.77l26.7-30.77L484.78,1018.72z M467.09,1049.93l18.07-20.85l18.1,20.85
	l-18.1,20.85L467.09,1049.93z"/>
<g>
	<g>
		<polygon class="st0" points="497.39,1049.93 485.16,1064.02 472.93,1049.93 485.16,1035.82 		"/>
	</g>
</g>
<path class="st1" d="M540.78,1018.72l-26.67,30.77l26.67,30.77l26.7-30.77L540.78,1018.72z M523.09,1049.93l18.07-20.85l18.1,20.85
	l-18.1,20.85L523.09,1049.93z"/>
<g>
	<g>
		<polygon class="st0" points="553.39,1049.93 541.16,1064.02 528.93,1049.93 541.16,1035.82 		"/>
	</g>
</g>
<path class="st1" d="M596.78,1018.72l-26.67,30.77l26.67,30.77l26.7-30.77L596.78,1018.72z M579.09,1049.93l18.07-20.85l18.1,20.85
	l-18.1,20.85L579.09,1049.93z"/>
<g>
	<g>
		<polygon class="st0" points="609.39,1049.93 597.16,1064.02 584.93,1049.93 597.16,1035.82 		"/>
	</g>
</g>
<path class="st1" d="M652.78,1018.72l-26.67,30.77l26.67,30.77l26.7-30.77L652.78,1018.72z M635.09,1049.93l18.07-20.85l18.1,20.85
	l-18.1,20.85L635.09,1049.93z"/>
<g>
	<g>
		<polygon class="st0" points="665.39,1049.93 653.16,1064.02 640.93,1049.93 653.16,1035.82 		"/>
	</g>
</g>
<path class="st1" d="M708.78,1018.72l-26.67,30.77l26.67,30.77l26.7-30.77L708.78,1018.72z M691.09,1049.93l18.07-20.85l18.1,20.85
	l-18.1,20.85L691.09,1049.93z"/>
<g>
	<g>
		<polygon class="st0" points="721.39,1049.93 709.16,1064.02 696.93,1049.93 709.16,1035.82 		"/>
	</g>
</g>
<path class="st1" d="M764.78,1018.72l-26.67,30.77l26.67,30.77l26.7-30.77L764.78,1018.72z M747.09,1049.93l18.07-20.85l18.1,20.85
	l-18.1,20.85L747.09,1049.93z"/>
<g>
	<g>
		<polygon class="st0" points="777.39,1049.93 765.16,1064.02 752.93,1049.93 765.16,1035.82 		"/>
	</g>
</g>
<path class="st1" d="M820.78,1018.72l-26.67,30.77l26.67,30.77l26.7-30.77L820.78,1018.72z M803.09,1049.93l18.07-20.85l18.1,20.85
	l-18.1,20.85L803.09,1049.93z"/>
<g>
	<g>
		<polygon class="st0" points="833.39,1049.93 821.16,1064.02 808.93,1049.93 821.16,1035.82 		"/>
	</g>
</g>
<path class="st1" d="M876.78,1018.72l-26.67,30.77l26.67,30.77l26.7-30.77L876.78,1018.72z M859.09,1049.93l18.07-20.85l18.1,20.85
	l-18.1,20.85L859.09,1049.93z"/>
<g>
	<g>
		<polygon class="st0" points="889.39,1049.93 877.16,1064.02 864.93,1049.93 877.16,1035.82 		"/>
	</g>
</g>
<path class="st1" d="M932.78,1018.72l-26.67,30.77l26.67,30.77l26.7-30.77L932.78,1018.72z M915.09,1049.93l18.07-20.85l18.1,20.85
	l-18.1,20.85L915.09,1049.93z"/>
<g>
	<g>
		<polygon class="st0" points="945.39,1049.93 933.16,1064.02 920.93,1049.93 933.16,1035.82 		"/>
	</g>
</g>
<path class="st1" d="M988.78,1018.72l-26.67,30.77l26.67,30.77l26.7-30.77L988.78,1018.72z M971.09,1049.93l18.07-20.85l18.1,20.85
	l-18.1,20.85L971.09,1049.93z"/>
<g>
	<g>
		<polygon class="st0" points="1001.39,1049.93 989.16,1064.02 976.93,1049.93 989.16,1035.82 		"/>
	</g>
</g>
<path class="st1" d="M1044.78,1018.72l-26.67,30.77l26.67,30.77l26.7-30.77L1044.78,1018.72z M1027.09,1049.93l18.07-20.85
	l18.1,20.85l-18.1,20.85L1027.09,1049.93z"/>
<g>
	<g>
		<polygon class="st0" points="1057.39,1049.93 1045.16,1064.02 1032.93,1049.93 1045.16,1035.82 		"/>
	</g>
</g>
<path class="st1" d="M1100.78,1018.72l-26.67,30.77l26.67,30.77l26.7-30.77L1100.78,1018.72z M1083.09,1049.93l18.07-20.85
	l18.1,20.85l-18.1,20.85L1083.09,1049.93z"/>
<g>
	<g>
		<polygon class="st0" points="1113.39,1049.93 1101.16,1064.02 1088.93,1049.93 1101.16,1035.82 		"/>
	</g>
</g>
<path class="st1" d="M1156.78,1018.72l-26.67,30.77l26.67,30.77l26.7-30.77L1156.78,1018.72z M1139.09,1049.93l18.07-20.85
	l18.1,20.85l-18.1,20.85L1139.09,1049.93z"/>
<g>
	<g>
		<polygon class="st0" points="1169.39,1049.93 1157.16,1064.02 1144.93,1049.93 1157.16,1035.82 		"/>
	</g>
</g>
<path class="st1" d="M1212.78,1018.72l-26.67,30.77l26.67,30.77l26.7-30.77L1212.78,1018.72z M1195.09,1049.93l18.07-20.85
	l18.1,20.85l-18.1,20.85L1195.09,1049.93z"/>
<g>
	<g>
		<polygon class="st0" points="1225.39,1049.93 1213.16,1064.02 1200.93,1049.93 1213.16,1035.82 		"/>
	</g>
</g>
<path class="st1" d="M1268.78,1018.72l-26.67,30.77l26.67,30.77l26.7-30.77L1268.78,1018.72z M1251.09,1049.93l18.07-20.85
	l18.1,20.85l-18.1,20.85L1251.09,1049.93z"/>
<g>
	<g>
		<polygon class="st0" points="1281.39,1049.93 1269.16,1064.02 1256.93,1049.93 1269.16,1035.82 		"/>
	</g>
</g>
<path class="st1" d="M1324.78,1018.72l-26.67,30.77l26.67,30.77l26.7-30.77L1324.78,1018.72z M1307.09,1049.93l18.07-20.85
	l18.1,20.85l-18.1,20.85L1307.09,1049.93z"/>
<g>
	<g>
		<polygon class="st0" points="1337.39,1049.93 1325.16,1064.02 1312.93,1049.93 1325.16,1035.82 		"/>
	</g>
</g>
<path class="st1" d="M1380.78,1018.72l-26.67,30.77l26.67,30.77l26.7-30.77L1380.78,1018.72z M1363.09,1049.93l18.07-20.85
	l18.1,20.85l-18.1,20.85L1363.09,1049.93z"/>
<g>
	<g>
		<polygon class="st0" points="1393.39,1049.93 1381.16,1064.02 1368.93,1049.93 1381.16,1035.82 		"/>
	</g>
</g>
<path class="st1" d="M1436.78,1018.72l-26.67,30.77l26.67,30.77l26.7-30.77L1436.78,1018.72z M1419.09,1049.93l18.07-20.85
	l18.1,20.85l-18.1,20.85L1419.09,1049.93z"/>
<g>
	<g>
		<polygon class="st0" points="1449.39,1049.93 1437.16,1064.02 1424.93,1049.93 1437.16,1035.82 		"/>
	</g>
</g>
<path class="st1" d="M1492.78,1018.72l-26.67,30.77l26.67,30.77l26.7-30.77L1492.78,1018.72z M1475.09,1049.93l18.07-20.85
	l18.1,20.85l-18.1,20.85L1475.09,1049.93z"/>
<g>
	<g>
		<polygon class="st0" points="1505.39,1049.93 1493.16,1064.02 1480.93,1049.93 1493.16,1035.82 		"/>
	</g>
</g>
<path class="st1" d="M1548.78,1018.72l-26.67,30.77l26.67,30.77l26.7-30.77L1548.78,1018.72z M1531.09,1049.93l18.07-20.85
	l18.1,20.85l-18.1,20.85L1531.09,1049.93z"/>
<g>
	<g>
		<polygon class="st0" points="1561.39,1049.93 1549.16,1064.02 1536.93,1049.93 1549.16,1035.82 		"/>
	</g>
</g>
<path class="st1" d="M1604.78,1018.72l-26.67,30.77l26.67,30.77l26.7-30.77L1604.78,1018.72z M1587.09,1049.93l18.07-20.85
	l18.1,20.85l-18.1,20.85L1587.09,1049.93z"/>
<g>
	<g>
		<polygon class="st0" points="1617.39,1049.93 1605.16,1064.02 1592.93,1049.93 1605.16,1035.82 		"/>
	</g>
</g>
<path class="st1" d="M92.78,1018.72l-26.67,30.77l26.67,30.77l26.7-30.77L92.78,1018.72z M75.09,1049.93l18.07-20.85l18.1,20.85
	l-18.1,20.85L75.09,1049.93z"/>
<g>
	<g>
		<polygon class="st0" points="105.39,1049.93 93.16,1064.02 80.93,1049.93 93.16,1035.82 		"/>
	</g>
</g>
<path class="st1" d="M148.78,1018.72l-26.67,30.77l26.67,30.77l26.7-30.77L148.78,1018.72z M131.09,1049.93l18.07-20.85l18.1,20.85
	l-18.1,20.85L131.09,1049.93z"/>
<g>
	<g>
		<polygon class="st0" points="161.39,1049.93 149.16,1064.02 136.93,1049.93 149.16,1035.82 		"/>
	</g>
</g>
<path class="st1" d="M204.78,1018.72l-26.67,30.77l26.67,30.77l26.7-30.77L204.78,1018.72z M187.09,1049.93l18.07-20.85l18.1,20.85
	l-18.1,20.85L187.09,1049.93z"/>
<g>
	<g>
		<polygon class="st0" points="217.39,1049.93 205.16,1064.02 192.93,1049.93 205.16,1035.82 		"/>
	</g>
</g>
<path class="st1" d="M260.78,1018.72l-26.67,30.77l26.67,30.77l26.7-30.77L260.78,1018.72z M243.09,1049.93l18.07-20.85l18.1,20.85
	l-18.1,20.85L243.09,1049.93z"/>
<g>
	<g>
		<polygon class="st0" points="273.39,1049.93 261.16,1064.02 248.93,1049.93 261.16,1035.82 		"/>
	</g>
</g>
<path class="st1" d="M316.78,1018.72l-26.67,30.77l26.67,30.77l26.7-30.77L316.78,1018.72z M299.09,1049.93l18.07-20.85l18.1,20.85
	l-18.1,20.85L299.09,1049.93z"/>
<g>
	<g>
		<polygon class="st0" points="329.39,1049.93 317.16,1064.02 304.93,1049.93 317.16,1035.82 		"/>
	</g>
</g>
<path class="st1" d="M372.78,1018.72l-26.67,30.77l26.67,30.77l26.7-30.77L372.78,1018.72z M355.09,1049.93l18.07-20.85l18.1,20.85
	l-18.1,20.85L355.09,1049.93z"/>
<g>
	<g>
		<polygon class="st0" points="385.39,1049.93 373.16,1064.02 360.93,1049.93 373.16,1035.82 		"/>
	</g>
</g>
<path class="st1" d="M428.78,1018.72l-26.67,30.77l26.67,30.77l26.7-30.77L428.78,1018.72z M411.09,1049.93l18.07-20.85l18.1,20.85
	l-18.1,20.85L411.09,1049.93z"/>
<g>
	<g>
		<polygon class="st0" points="441.39,1049.93 429.16,1064.02 416.93,1049.93 429.16,1035.82 		"/>
	</g>
</g>
<path class="st1" d="M484.78,1018.72l-26.67,30.77l26.67,30.77l26.7-30.77L484.78,1018.72z M467.09,1049.93l18.07-20.85l18.1,20.85
	l-18.1,20.85L467.09,1049.93z"/>
<g>
	<g>
		<polygon class="st0" points="497.39,1049.93 485.16,1064.02 472.93,1049.93 485.16,1035.82 		"/>
	</g>
</g>
<path class="st1" d="M540.78,1018.72l-26.67,30.77l26.67,30.77l26.7-30.77L540.78,1018.72z M523.09,1049.93l18.07-20.85l18.1,20.85
	l-18.1,20.85L523.09,1049.93z"/>
<g>
	<g>
		<polygon class="st0" points="553.39,1049.93 541.16,1064.02 528.93,1049.93 541.16,1035.82 		"/>
	</g>
</g>
<path class="st1" d="M596.78,1018.72l-26.67,30.77l26.67,30.77l26.7-30.77L596.78,1018.72z M579.09,1049.93l18.07-20.85l18.1,20.85
	l-18.1,20.85L579.09,1049.93z"/>
<g>
	<g>
		<polygon class="st0" points="609.39,1049.93 597.16,1064.02 584.93,1049.93 597.16,1035.82 		"/>
	</g>
</g>
<path class="st1" d="M652.78,1018.72l-26.67,30.77l26.67,30.77l26.7-30.77L652.78,1018.72z M635.09,1049.93l18.07-20.85l18.1,20.85
	l-18.1,20.85L635.09,1049.93z"/>
<g>
	<g>
		<polygon class="st0" points="665.39,1049.93 653.16,1064.02 640.93,1049.93 653.16,1035.82 		"/>
	</g>
</g>
<path class="st1" d="M708.78,1018.72l-26.67,30.77l26.67,30.77l26.7-30.77L708.78,1018.72z M691.09,1049.93l18.07-20.85l18.1,20.85
	l-18.1,20.85L691.09,1049.93z"/>
<g>
	<g>
		<polygon class="st0" points="721.39,1049.93 709.16,1064.02 696.93,1049.93 709.16,1035.82 		"/>
	</g>
</g>
<path class="st1" d="M764.78,1018.72l-26.67,30.77l26.67,30.77l26.7-30.77L764.78,1018.72z M747.09,1049.93l18.07-20.85l18.1,20.85
	l-18.1,20.85L747.09,1049.93z"/>
<g>
	<g>
		<polygon class="st0" points="777.39,1049.93 765.16,1064.02 752.93,1049.93 765.16,1035.82 		"/>
	</g>
</g>
<path class="st1" d="M820.78,1018.72l-26.67,30.77l26.67,30.77l26.7-30.77L820.78,1018.72z M803.09,1049.93l18.07-20.85l18.1,20.85
	l-18.1,20.85L803.09,1049.93z"/>
<g>
	<g>
		<polygon class="st0" points="833.39,1049.93 821.16,1064.02 808.93,1049.93 821.16,1035.82 		"/>
	</g>
</g>
<path class="st1" d="M876.78,1018.72l-26.67,30.77l26.67,30.77l26.7-30.77L876.78,1018.72z M859.09,1049.93l18.07-20.85l18.1,20.85
	l-18.1,20.85L859.09,1049.93z"/>
<g>
	<g>
		<polygon class="st0" points="889.39,1049.93 877.16,1064.02 864.93,1049.93 877.16,1035.82 		"/>
	</g>
</g>
<path class="st1" d="M932.78,1018.72l-26.67,30.77l26.67,30.77l26.7-30.77L932.78,1018.72z M915.09,1049.93l18.07-20.85l18.1,20.85
	l-18.1,20.85L915.09,1049.93z"/>
<g>
	<g>
		<polygon class="st0" points="945.39,1049.93 933.16,1064.02 920.93,1049.93 933.16,1035.82 		"/>
	</g>
</g>
<path class="st1" d="M988.78,1018.72l-26.67,30.77l26.67,30.77l26.7-30.77L988.78,1018.72z M971.09,1049.93l18.07-20.85l18.1,20.85
	l-18.1,20.85L971.09,1049.93z"/>
<g>
	<g>
		<polygon class="st0" points="1001.39,1049.93 989.16,1064.02 976.93,1049.93 989.16,1035.82 		"/>
	</g>
</g>
<path class="st1" d="M1044.78,1018.72l-26.67,30.77l26.67,30.77l26.7-30.77L1044.78,1018.72z M1027.09,1049.93l18.07-20.85
	l18.1,20.85l-18.1,20.85L1027.09,1049.93z"/>
<g>
	<g>
		<polygon class="st0" points="1057.39,1049.93 1045.16,1064.02 1032.93,1049.93 1045.16,1035.82 		"/>
	</g>
</g>
<path class="st1" d="M1100.78,1018.72l-26.67,30.77l26.67,30.77l26.7-30.77L1100.78,1018.72z M1083.09,1049.93l18.07-20.85
	l18.1,20.85l-18.1,20.85L1083.09,1049.93z"/>
<g>
	<g>
		<polygon class="st0" points="1113.39,1049.93 1101.16,1064.02 1088.93,1049.93 1101.16,1035.82 		"/>
	</g>
</g>
<path class="st1" d="M1156.78,1018.72l-26.67,30.77l26.67,30.77l26.7-30.77L1156.78,1018.72z M1139.09,1049.93l18.07-20.85
	l18.1,20.85l-18.1,20.85L1139.09,1049.93z"/>
<g>
	<g>
		<polygon class="st0" points="1169.39,1049.93 1157.16,1064.02 1144.93,1049.93 1157.16,1035.82 		"/>
	</g>
</g>
<path class="st1" d="M1212.78,1018.72l-26.67,30.77l26.67,30.77l26.7-30.77L1212.78,1018.72z M1195.09,1049.93l18.07-20.85
	l18.1,20.85l-18.1,20.85L1195.09,1049.93z"/>
<g>
	<g>
		<polygon class="st0" points="1225.39,1049.93 1213.16,1064.02 1200.93,1049.93 1213.16,1035.82 		"/>
	</g>
</g>
<path class="st1" d="M1268.78,1018.72l-26.67,30.77l26.67,30.77l26.7-30.77L1268.78,1018.72z M1251.09,1049.93l18.07-20.85
	l18.1,20.85l-18.1,20.85L1251.09,1049.93z"/>
<g>
	<g>
		<polygon class="st0" points="1281.39,1049.93 1269.16,1064.02 1256.93,1049.93 1269.16,1035.82 		"/>
	</g>
</g>
<path class="st1" d="M1324.78,1018.72l-26.67,30.77l26.67,30.77l26.7-30.77L1324.78,1018.72z M1307.09,1049.93l18.07-20.85
	l18.1,20.85l-18.1,20.85L1307.09,1049.93z"/>
<g>
	<g>
		<polygon class="st0" points="1337.39,1049.93 1325.16,1064.02 1312.93,1049.93 1325.16,1035.82 		"/>
	</g>
</g>
<path class="st1" d="M1380.78,1018.72l-26.67,30.77l26.67,30.77l26.7-30.77L1380.78,1018.72z M1363.09,1049.93l18.07-20.85
	l18.1,20.85l-18.1,20.85L1363.09,1049.93z"/>
<g>
	<g>
		<polygon class="st0" points="1393.39,1049.93 1381.16,1064.02 1368.93,1049.93 1381.16,1035.82 		"/>
	</g>
</g>
<path class="st1" d="M1436.78,1018.72l-26.67,30.77l26.67,30.77l26.7-30.77L1436.78,1018.72z M1419.09,1049.93l18.07-20.85
	l18.1,20.85l-18.1,20.85L1419.09,1049.93z"/>
<g>
	<g>
		<polygon class="st0" points="1449.39,1049.93 1437.16,1064.02 1424.93,1049.93 1437.16,1035.82 		"/>
	</g>
</g>
<path class="st1" d="M1492.78,1018.72l-26.67,30.77l26.67,30.77l26.7-30.77L1492.78,1018.72z M1475.09,1049.93l18.07-20.85
	l18.1,20.85l-18.1,20.85L1475.09,1049.93z"/>
<g>
	<g>
		<polygon class="st0" points="1505.39,1049.93 1493.16,1064.02 1480.93,1049.93 1493.16,1035.82 		"/>
	</g>
</g>
<path class="st1" d="M1548.78,1018.72l-26.67,30.77l26.67,30.77l26.7-30.77L1548.78,1018.72z M1531.09,1049.93l18.07-20.85
	l18.1,20.85l-18.1,20.85L1531.09,1049.93z"/>
<g>
	<g>
		<polygon class="st0" points="1561.39,1049.93 1549.16,1064.02 1536.93,1049.93 1549.16,1035.82 		"/>
	</g>
</g>
<path class="st1" d="M1604.78,1018.72l-26.67,30.77l26.67,30.77l26.7-30.77L1604.78,1018.72z M1587.09,1049.93l18.07-20.85
	l18.1,20.85l-18.1,20.85L1587.09,1049.93z"/>
<g>
	<g>
		<polygon class="st0" points="1617.39,1049.93 1605.16,1064.02 1592.93,1049.93 1605.16,1035.82 		"/>
	</g>
</g>
<path class="st1" d="M1660.78,1018.72l-26.67,30.77l26.67,30.77l26.7-30.77L1660.78,1018.72z M1643.09,1049.93l18.07-20.85
	l18.1,20.85l-18.1,20.85L1643.09,1049.93z"/>
<g>
	<g>
		<polygon class="st0" points="1673.39,1049.93 1661.16,1064.02 1648.93,1049.93 1661.16,1035.82 		"/>
	</g>
</g>
<path class="st1" d="M148.78,1018.72l-26.67,30.77l26.67,30.77l26.7-30.77L148.78,1018.72z M131.09,1049.93l18.07-20.85l18.1,20.85
	l-18.1,20.85L131.09,1049.93z"/>
<g>
	<g>
		<polygon class="st0" points="161.39,1049.93 149.16,1064.02 136.93,1049.93 149.16,1035.82 		"/>
	</g>
</g>
<path class="st1" d="M204.78,1018.72l-26.67,30.77l26.67,30.77l26.7-30.77L204.78,1018.72z M187.09,1049.93l18.07-20.85l18.1,20.85
	l-18.1,20.85L187.09,1049.93z"/>
<g>
	<g>
		<polygon class="st0" points="217.39,1049.93 205.16,1064.02 192.93,1049.93 205.16,1035.82 		"/>
	</g>
</g>
<path class="st1" d="M260.78,1018.72l-26.67,30.77l26.67,30.77l26.7-30.77L260.78,1018.72z M243.09,1049.93l18.07-20.85l18.1,20.85
	l-18.1,20.85L243.09,1049.93z"/>
<g>
	<g>
		<polygon class="st0" points="273.39,1049.93 261.16,1064.02 248.93,1049.93 261.16,1035.82 		"/>
	</g>
</g>
<path class="st1" d="M316.78,1018.72l-26.67,30.77l26.67,30.77l26.7-30.77L316.78,1018.72z M299.09,1049.93l18.07-20.85l18.1,20.85
	l-18.1,20.85L299.09,1049.93z"/>
<g>
	<g>
		<polygon class="st0" points="329.39,1049.93 317.16,1064.02 304.93,1049.93 317.16,1035.82 		"/>
	</g>
</g>
<path class="st1" d="M372.78,1018.72l-26.67,30.77l26.67,30.77l26.7-30.77L372.78,1018.72z M355.09,1049.93l18.07-20.85l18.1,20.85
	l-18.1,20.85L355.09,1049.93z"/>
<g>
	<g>
		<polygon class="st0" points="385.39,1049.93 373.16,1064.02 360.93,1049.93 373.16,1035.82 		"/>
	</g>
</g>
<path class="st1" d="M428.78,1018.72l-26.67,30.77l26.67,30.77l26.7-30.77L428.78,1018.72z M411.09,1049.93l18.07-20.85l18.1,20.85
	l-18.1,20.85L411.09,1049.93z"/>
<g>
	<g>
		<polygon class="st0" points="441.39,1049.93 429.16,1064.02 416.93,1049.93 429.16,1035.82 		"/>
	</g>
</g>
<path class="st1" d="M484.78,1018.72l-26.67,30.77l26.67,30.77l26.7-30.77L484.78,1018.72z M467.09,1049.93l18.07-20.85l18.1,20.85
	l-18.1,20.85L467.09,1049.93z"/>
<g>
	<g>
		<polygon class="st0" points="497.39,1049.93 485.16,1064.02 472.93,1049.93 485.16,1035.82 		"/>
	</g>
</g>
<path class="st1" d="M540.78,1018.72l-26.67,30.77l26.67,30.77l26.7-30.77L540.78,1018.72z M523.09,1049.93l18.07-20.85l18.1,20.85
	l-18.1,20.85L523.09,1049.93z"/>
<g>
	<g>
		<polygon class="st0" points="553.39,1049.93 541.16,1064.02 528.93,1049.93 541.16,1035.82 		"/>
	</g>
</g>
<path class="st1" d="M596.78,1018.72l-26.67,30.77l26.67,30.77l26.7-30.77L596.78,1018.72z M579.09,1049.93l18.07-20.85l18.1,20.85
	l-18.1,20.85L579.09,1049.93z"/>
<g>
	<g>
		<polygon class="st0" points="609.39,1049.93 597.16,1064.02 584.93,1049.93 597.16,1035.82 		"/>
	</g>
</g>
<path class="st1" d="M652.78,1018.72l-26.67,30.77l26.67,30.77l26.7-30.77L652.78,1018.72z M635.09,1049.93l18.07-20.85l18.1,20.85
	l-18.1,20.85L635.09,1049.93z"/>
<g>
	<g>
		<polygon class="st0" points="665.39,1049.93 653.16,1064.02 640.93,1049.93 653.16,1035.82 		"/>
	</g>
</g>
<path class="st1" d="M708.78,1018.72l-26.67,30.77l26.67,30.77l26.7-30.77L708.78,1018.72z M691.09,1049.93l18.07-20.85l18.1,20.85
	l-18.1,20.85L691.09,1049.93z"/>
<g>
	<g>
		<polygon class="st0" points="721.39,1049.93 709.16,1064.02 696.93,1049.93 709.16,1035.82 		"/>
	</g>
</g>
<path class="st1" d="M764.78,1018.72l-26.67,30.77l26.67,30.77l26.7-30.77L764.78,1018.72z M747.09,1049.93l18.07-20.85l18.1,20.85
	l-18.1,20.85L747.09,1049.93z"/>
<g>
	<g>
		<polygon class="st0" points="777.39,1049.93 765.16,1064.02 752.93,1049.93 765.16,1035.82 		"/>
	</g>
</g>
<path class="st1" d="M820.78,1018.72l-26.67,30.77l26.67,30.77l26.7-30.77L820.78,1018.72z M803.09,1049.93l18.07-20.85l18.1,20.85
	l-18.1,20.85L803.09,1049.93z"/>
<g>
	<g>
		<polygon class="st0" points="833.39,1049.93 821.16,1064.02 808.93,1049.93 821.16,1035.82 		"/>
	</g>
</g>
<path class="st1" d="M876.78,1018.72l-26.67,30.77l26.67,30.77l26.7-30.77L876.78,1018.72z M859.09,1049.93l18.07-20.85l18.1,20.85
	l-18.1,20.85L859.09,1049.93z"/>
<g>
	<g>
		<polygon class="st0" points="889.39,1049.93 877.16,1064.02 864.93,1049.93 877.16,1035.82 		"/>
	</g>
</g>
<path class="st1" d="M932.78,1018.72l-26.67,30.77l26.67,30.77l26.7-30.77L932.78,1018.72z M915.09,1049.93l18.07-20.85l18.1,20.85
	l-18.1,20.85L915.09,1049.93z"/>
<g>
	<g>
		<polygon class="st0" points="945.39,1049.93 933.16,1064.02 920.93,1049.93 933.16,1035.82 		"/>
	</g>
</g>
<path class="st1" d="M988.78,1018.72l-26.67,30.77l26.67,30.77l26.7-30.77L988.78,1018.72z M971.09,1049.93l18.07-20.85l18.1,20.85
	l-18.1,20.85L971.09,1049.93z"/>
<g>
	<g>
		<polygon class="st0" points="1001.39,1049.93 989.16,1064.02 976.93,1049.93 989.16,1035.82 		"/>
	</g>
</g>
<path class="st1" d="M1044.78,1018.72l-26.67,30.77l26.67,30.77l26.7-30.77L1044.78,1018.72z M1027.09,1049.93l18.07-20.85
	l18.1,20.85l-18.1,20.85L1027.09,1049.93z"/>
<g>
	<g>
		<polygon class="st0" points="1057.39,1049.93 1045.16,1064.02 1032.93,1049.93 1045.16,1035.82 		"/>
	</g>
</g>
<path class="st1" d="M1100.78,1018.72l-26.67,30.77l26.67,30.77l26.7-30.77L1100.78,1018.72z M1083.09,1049.93l18.07-20.85
	l18.1,20.85l-18.1,20.85L1083.09,1049.93z"/>
<g>
	<g>
		<polygon class="st0" points="1113.39,1049.93 1101.16,1064.02 1088.93,1049.93 1101.16,1035.82 		"/>
	</g>
</g>
<path class="st1" d="M1156.78,1018.72l-26.67,30.77l26.67,30.77l26.7-30.77L1156.78,1018.72z M1139.09,1049.93l18.07-20.85
	l18.1,20.85l-18.1,20.85L1139.09,1049.93z"/>
<g>
	<g>
		<polygon class="st0" points="1169.39,1049.93 1157.16,1064.02 1144.93,1049.93 1157.16,1035.82 		"/>
	</g>
</g>
<path class="st1" d="M1212.78,1018.72l-26.67,30.77l26.67,30.77l26.7-30.77L1212.78,1018.72z M1195.09,1049.93l18.07-20.85
	l18.1,20.85l-18.1,20.85L1195.09,1049.93z"/>
<g>
	<g>
		<polygon class="st0" points="1225.39,1049.93 1213.16,1064.02 1200.93,1049.93 1213.16,1035.82 		"/>
	</g>
</g>
<path class="st1" d="M1268.78,1018.72l-26.67,30.77l26.67,30.77l26.7-30.77L1268.78,1018.72z M1251.09,1049.93l18.07-20.85
	l18.1,20.85l-18.1,20.85L1251.09,1049.93z"/>
<g>
	<g>
		<polygon class="st0" points="1281.39,1049.93 1269.16,1064.02 1256.93,1049.93 1269.16,1035.82 		"/>
	</g>
</g>
<path class="st1" d="M1324.78,1018.72l-26.67,30.77l26.67,30.77l26.7-30.77L1324.78,1018.72z M1307.09,1049.93l18.07-20.85
	l18.1,20.85l-18.1,20.85L1307.09,1049.93z"/>
<g>
	<g>
		<polygon class="st0" points="1337.39,1049.93 1325.16,1064.02 1312.93,1049.93 1325.16,1035.82 		"/>
	</g>
</g>
<path class="st1" d="M1380.78,1018.72l-26.67,30.77l26.67,30.77l26.7-30.77L1380.78,1018.72z M1363.09,1049.93l18.07-20.85
	l18.1,20.85l-18.1,20.85L1363.09,1049.93z"/>
<g>
	<g>
		<polygon class="st0" points="1393.39,1049.93 1381.16,1064.02 1368.93,1049.93 1381.16,1035.82 		"/>
	</g>
</g>
<path class="st1" d="M1436.78,1018.72l-26.67,30.77l26.67,30.77l26.7-30.77L1436.78,1018.72z M1419.09,1049.93l18.07-20.85
	l18.1,20.85l-18.1,20.85L1419.09,1049.93z"/>
<g>
	<g>
		<polygon class="st0" points="1449.39,1049.93 1437.16,1064.02 1424.93,1049.93 1437.16,1035.82 		"/>
	</g>
</g>
<path class="st1" d="M1492.78,1018.72l-26.67,30.77l26.67,30.77l26.7-30.77L1492.78,1018.72z M1475.09,1049.93l18.07-20.85
	l18.1,20.85l-18.1,20.85L1475.09,1049.93z"/>
<g>
	<g>
		<polygon class="st0" points="1505.39,1049.93 1493.16,1064.02 1480.93,1049.93 1493.16,1035.82 		"/>
	</g>
</g>
<path class="st1" d="M1548.78,1018.72l-26.67,30.77l26.67,30.77l26.7-30.77L1548.78,1018.72z M1531.09,1049.93l18.07-20.85
	l18.1,20.85l-18.1,20.85L1531.09,1049.93z"/>
<g>
	<g>
		<polygon class="st0" points="1561.39,1049.93 1549.16,1064.02 1536.93,1049.93 1549.16,1035.82 		"/>
	</g>
</g>
<path class="st1" d="M1604.78,1018.72l-26.67,30.77l26.67,30.77l26.7-30.77L1604.78,1018.72z M1587.09,1049.93l18.07-20.85
	l18.1,20.85l-18.1,20.85L1587.09,1049.93z"/>
<g>
	<g>
		<polygon class="st0" points="1617.39,1049.93 1605.16,1064.02 1592.93,1049.93 1605.16,1035.82 		"/>
	</g>
</g>
<path class="st1" d="M1660.78,1018.72l-26.67,30.77l26.67,30.77l26.7-30.77L1660.78,1018.72z M1643.09,1049.93l18.07-20.85
	l18.1,20.85l-18.1,20.85L1643.09,1049.93z"/>
<g>
	<g>
		<polygon class="st0" points="1673.39,1049.93 1661.16,1064.02 1648.93,1049.93 1661.16,1035.82 		"/>
	</g>
</g>
<path class="st1" d="M1716.78,1018.72l-26.67,30.77l26.67,30.77l26.7-30.77L1716.78,1018.72z M1699.09,1049.93l18.07-20.85
	l18.1,20.85l-18.1,20.85L1699.09,1049.93z"/>
<g>
	<g>
		<polygon class="st0" points="1729.39,1049.93 1717.16,1064.02 1704.93,1049.93 1717.16,1035.82 		"/>
	</g>
</g>
<path class="st1" d="M204.78,1018.72l-26.67,30.77l26.67,30.77l26.7-30.77L204.78,1018.72z M187.09,1049.93l18.07-20.85l18.1,20.85
	l-18.1,20.85L187.09,1049.93z"/>
<g>
	<g>
		<polygon class="st0" points="217.39,1049.93 205.16,1064.02 192.93,1049.93 205.16,1035.82 		"/>
	</g>
</g>
<path class="st1" d="M260.78,1018.72l-26.67,30.77l26.67,30.77l26.7-30.77L260.78,1018.72z M243.09,1049.93l18.07-20.85l18.1,20.85
	l-18.1,20.85L243.09,1049.93z"/>
<g>
	<g>
		<polygon class="st0" points="273.39,1049.93 261.16,1064.02 248.93,1049.93 261.16,1035.82 		"/>
	</g>
</g>
<path class="st1" d="M316.78,1018.72l-26.67,30.77l26.67,30.77l26.7-30.77L316.78,1018.72z M299.09,1049.93l18.07-20.85l18.1,20.85
	l-18.1,20.85L299.09,1049.93z"/>
<g>
	<g>
		<polygon class="st0" points="329.39,1049.93 317.16,1064.02 304.93,1049.93 317.16,1035.82 		"/>
	</g>
</g>
<path class="st1" d="M372.78,1018.72l-26.67,30.77l26.67,30.77l26.7-30.77L372.78,1018.72z M355.09,1049.93l18.07-20.85l18.1,20.85
	l-18.1,20.85L355.09,1049.93z"/>
<g>
	<g>
		<polygon class="st0" points="385.39,1049.93 373.16,1064.02 360.93,1049.93 373.16,1035.82 		"/>
	</g>
</g>
<path class="st1" d="M428.78,1018.72l-26.67,30.77l26.67,30.77l26.7-30.77L428.78,1018.72z M411.09,1049.93l18.07-20.85l18.1,20.85
	l-18.1,20.85L411.09,1049.93z"/>
<g>
	<g>
		<polygon class="st0" points="441.39,1049.93 429.16,1064.02 416.93,1049.93 429.16,1035.82 		"/>
	</g>
</g>
<path class="st1" d="M484.78,1018.72l-26.67,30.77l26.67,30.77l26.7-30.77L484.78,1018.72z M467.09,1049.93l18.07-20.85l18.1,20.85
	l-18.1,20.85L467.09,1049.93z"/>
<g>
	<g>
		<polygon class="st0" points="497.39,1049.93 485.16,1064.02 472.93,1049.93 485.16,1035.82 		"/>
	</g>
</g>
<path class="st1" d="M540.78,1018.72l-26.67,30.77l26.67,30.77l26.7-30.77L540.78,1018.72z M523.09,1049.93l18.07-20.85l18.1,20.85
	l-18.1,20.85L523.09,1049.93z"/>
<g>
	<g>
		<polygon class="st0" points="553.39,1049.93 541.16,1064.02 528.93,1049.93 541.16,1035.82 		"/>
	</g>
</g>
<path class="st1" d="M596.78,1018.72l-26.67,30.77l26.67,30.77l26.7-30.77L596.78,1018.72z M579.09,1049.93l18.07-20.85l18.1,20.85
	l-18.1,20.85L579.09,1049.93z"/>
<g>
	<g>
		<polygon class="st0" points="609.39,1049.93 597.16,1064.02 584.93,1049.93 597.16,1035.82 		"/>
	</g>
</g>
<path class="st1" d="M652.78,1018.72l-26.67,30.77l26.67,30.77l26.7-30.77L652.78,1018.72z M635.09,1049.93l18.07-20.85l18.1,20.85
	l-18.1,20.85L635.09,1049.93z"/>
<g>
	<g>
		<polygon class="st0" points="665.39,1049.93 653.16,1064.02 640.93,1049.93 653.16,1035.82 		"/>
	</g>
</g>
<path class="st1" d="M708.78,1018.72l-26.67,30.77l26.67,30.77l26.7-30.77L708.78,1018.72z M691.09,1049.93l18.07-20.85l18.1,20.85
	l-18.1,20.85L691.09,1049.93z"/>
<g>
	<g>
		<polygon class="st0" points="721.39,1049.93 709.16,1064.02 696.93,1049.93 709.16,1035.82 		"/>
	</g>
</g>
<path class="st1" d="M764.78,1018.72l-26.67,30.77l26.67,30.77l26.7-30.77L764.78,1018.72z M747.09,1049.93l18.07-20.85l18.1,20.85
	l-18.1,20.85L747.09,1049.93z"/>
<g>
	<g>
		<polygon class="st0" points="777.39,1049.93 765.16,1064.02 752.93,1049.93 765.16,1035.82 		"/>
	</g>
</g>
<path class="st1" d="M820.78,1018.72l-26.67,30.77l26.67,30.77l26.7-30.77L820.78,1018.72z M803.09,1049.93l18.07-20.85l18.1,20.85
	l-18.1,20.85L803.09,1049.93z"/>
<g>
	<g>
		<polygon class="st0" points="833.39,1049.93 821.16,1064.02 808.93,1049.93 821.16,1035.82 		"/>
	</g>
</g>
<path class="st1" d="M876.78,1018.72l-26.67,30.77l26.67,30.77l26.7-30.77L876.78,1018.72z M859.09,1049.93l18.07-20.85l18.1,20.85
	l-18.1,20.85L859.09,1049.93z"/>
<g>
	<g>
		<polygon class="st0" points="889.39,1049.93 877.16,1064.02 864.93,1049.93 877.16,1035.82 		"/>
	</g>
</g>
<path class="st1" d="M932.78,1018.72l-26.67,30.77l26.67,30.77l26.7-30.77L932.78,1018.72z M915.09,1049.93l18.07-20.85l18.1,20.85
	l-18.1,20.85L915.09,1049.93z"/>
<g>
	<g>
		<polygon class="st0" points="945.39,1049.93 933.16,1064.02 920.93,1049.93 933.16,1035.82 		"/>
	</g>
</g>
<path class="st1" d="M988.78,1018.72l-26.67,30.77l26.67,30.77l26.7-30.77L988.78,1018.72z M971.09,1049.93l18.07-20.85l18.1,20.85
	l-18.1,20.85L971.09,1049.93z"/>
<g>
	<g>
		<polygon class="st0" points="1001.39,1049.93 989.16,1064.02 976.93,1049.93 989.16,1035.82 		"/>
	</g>
</g>
<path class="st1" d="M1044.78,1018.72l-26.67,30.77l26.67,30.77l26.7-30.77L1044.78,1018.72z M1027.09,1049.93l18.07-20.85
	l18.1,20.85l-18.1,20.85L1027.09,1049.93z"/>
<g>
	<g>
		<polygon class="st0" points="1057.39,1049.93 1045.16,1064.02 1032.93,1049.93 1045.16,1035.82 		"/>
	</g>
</g>
<path class="st1" d="M1100.78,1018.72l-26.67,30.77l26.67,30.77l26.7-30.77L1100.78,1018.72z M1083.09,1049.93l18.07-20.85
	l18.1,20.85l-18.1,20.85L1083.09,1049.93z"/>
<g>
	<g>
		<polygon class="st0" points="1113.39,1049.93 1101.16,1064.02 1088.93,1049.93 1101.16,1035.82 		"/>
	</g>
</g>
<path class="st1" d="M1156.78,1018.72l-26.67,30.77l26.67,30.77l26.7-30.77L1156.78,1018.72z M1139.09,1049.93l18.07-20.85
	l18.1,20.85l-18.1,20.85L1139.09,1049.93z"/>
<g>
	<g>
		<polygon class="st0" points="1169.39,1049.93 1157.16,1064.02 1144.93,1049.93 1157.16,1035.82 		"/>
	</g>
</g>
<path class="st1" d="M1212.78,1018.72l-26.67,30.77l26.67,30.77l26.7-30.77L1212.78,1018.72z M1195.09,1049.93l18.07-20.85
	l18.1,20.85l-18.1,20.85L1195.09,1049.93z"/>
<g>
	<g>
		<polygon class="st0" points="1225.39,1049.93 1213.16,1064.02 1200.93,1049.93 1213.16,1035.82 		"/>
	</g>
</g>
<path class="st1" d="M1268.78,1018.72l-26.67,30.77l26.67,30.77l26.7-30.77L1268.78,1018.72z M1251.09,1049.93l18.07-20.85
	l18.1,20.85l-18.1,20.85L1251.09,1049.93z"/>
<g>
	<g>
		<polygon class="st0" points="1281.39,1049.93 1269.16,1064.02 1256.93,1049.93 1269.16,1035.82 		"/>
	</g>
</g>
<path class="st1" d="M1324.78,1018.72l-26.67,30.77l26.67,30.77l26.7-30.77L1324.78,1018.72z M1307.09,1049.93l18.07-20.85
	l18.1,20.85l-18.1,20.85L1307.09,1049.93z"/>
<g>
	<g>
		<polygon class="st0" points="1337.39,1049.93 1325.16,1064.02 1312.93,1049.93 1325.16,1035.82 		"/>
	</g>
</g>
<path class="st1" d="M1380.78,1018.72l-26.67,30.77l26.67,30.77l26.7-30.77L1380.78,1018.72z M1363.09,1049.93l18.07-20.85
	l18.1,20.85l-18.1,20.85L1363.09,1049.93z"/>
<g>
	<g>
		<polygon class="st0" points="1393.39,1049.93 1381.16,1064.02 1368.93,1049.93 1381.16,1035.82 		"/>
	</g>
</g>
<path class="st1" d="M1436.78,1018.72l-26.67,30.77l26.67,30.77l26.7-30.77L1436.78,1018.72z M1419.09,1049.93l18.07-20.85
	l18.1,20.85l-18.1,20.85L1419.09,1049.93z"/>
<g>
	<g>
		<polygon class="st0" points="1449.39,1049.93 1437.16,1064.02 1424.93,1049.93 1437.16,1035.82 		"/>
	</g>
</g>
<path class="st1" d="M1492.78,1018.72l-26.67,30.77l26.67,30.77l26.7-30.77L1492.78,1018.72z M1475.09,1049.93l18.07-20.85
	l18.1,20.85l-18.1,20.85L1475.09,1049.93z"/>
<g>
	<g>
		<polygon class="st0" points="1505.39,1049.93 1493.16,1064.02 1480.93,1049.93 1493.16,1035.82 		"/>
	</g>
</g>
<path class="st1" d="M1548.78,1018.72l-26.67,30.77l26.67,30.77l26.7-30.77L1548.78,1018.72z M1531.09,1049.93l18.07-20.85
	l18.1,20.85l-18.1,20.85L1531.09,1049.93z"/>
<g>
	<g>
		<polygon class="st0" points="1561.39,1049.93 1549.16,1064.02 1536.93,1049.93 1549.16,1035.82 		"/>
	</g>
</g>
<path class="st1" d="M1604.78,1018.72l-26.67,30.77l26.67,30.77l26.7-30.77L1604.78,1018.72z M1587.09,1049.93l18.07-20.85
	l18.1,20.85l-18.1,20.85L1587.09,1049.93z"/>
<g>
	<g>
		<polygon class="st0" points="1617.39,1049.93 1605.16,1064.02 1592.93,1049.93 1605.16,1035.82 		"/>
	</g>
</g>
<path class="st1" d="M1660.78,1018.72l-26.67,30.77l26.67,30.77l26.7-30.77L1660.78,1018.72z M1643.09,1049.93l18.07-20.85
	l18.1,20.85l-18.1,20.85L1643.09,1049.93z"/>
<g>
	<g>
		<polygon class="st0" points="1673.39,1049.93 1661.16,1064.02 1648.93,1049.93 1661.16,1035.82 		"/>
	</g>
</g>
<path class="st1" d="M1716.78,1018.72l-26.67,30.77l26.67,30.77l26.7-30.77L1716.78,1018.72z M1699.09,1049.93l18.07-20.85
	l18.1,20.85l-18.1,20.85L1699.09,1049.93z"/>
<g>
	<g>
		<polygon class="st0" points="1729.39,1049.93 1717.16,1064.02 1704.93,1049.93 1717.16,1035.82 		"/>
	</g>
</g>
<path class="st1" d="M1772.78,1018.72l-26.67,30.77l26.67,30.77l26.7-30.77L1772.78,1018.72z M1755.09,1049.93l18.07-20.85
	l18.1,20.85l-18.1,20.85L1755.09,1049.93z"/>
<g>
	<g>
		<polygon class="st0" points="1785.39,1049.93 1773.16,1064.02 1760.93,1049.93 1773.16,1035.82 		"/>
	</g>
</g>
<path class="st1" d="M260.78,1018.72l-26.67,30.77l26.67,30.77l26.7-30.77L260.78,1018.72z M243.09,1049.93l18.07-20.85l18.1,20.85
	l-18.1,20.85L243.09,1049.93z"/>
<g>
	<g>
		<polygon class="st0" points="273.39,1049.93 261.16,1064.02 248.93,1049.93 261.16,1035.82 		"/>
	</g>
</g>
<path class="st1" d="M316.78,1018.72l-26.67,30.77l26.67,30.77l26.7-30.77L316.78,1018.72z M299.09,1049.93l18.07-20.85l18.1,20.85
	l-18.1,20.85L299.09,1049.93z"/>
<g>
	<g>
		<polygon class="st0" points="329.39,1049.93 317.16,1064.02 304.93,1049.93 317.16,1035.82 		"/>
	</g>
</g>
<path class="st1" d="M372.78,1018.72l-26.67,30.77l26.67,30.77l26.7-30.77L372.78,1018.72z M355.09,1049.93l18.07-20.85l18.1,20.85
	l-18.1,20.85L355.09,1049.93z"/>
<g>
	<g>
		<polygon class="st0" points="385.39,1049.93 373.16,1064.02 360.93,1049.93 373.16,1035.82 		"/>
	</g>
</g>
<path class="st1" d="M428.78,1018.72l-26.67,30.77l26.67,30.77l26.7-30.77L428.78,1018.72z M411.09,1049.93l18.07-20.85l18.1,20.85
	l-18.1,20.85L411.09,1049.93z"/>
<g>
	<g>
		<polygon class="st0" points="441.39,1049.93 429.16,1064.02 416.93,1049.93 429.16,1035.82 		"/>
	</g>
</g>
<path class="st1" d="M484.78,1018.72l-26.67,30.77l26.67,30.77l26.7-30.77L484.78,1018.72z M467.09,1049.93l18.07-20.85l18.1,20.85
	l-18.1,20.85L467.09,1049.93z"/>
<g>
	<g>
		<polygon class="st0" points="497.39,1049.93 485.16,1064.02 472.93,1049.93 485.16,1035.82 		"/>
	</g>
</g>
<path class="st1" d="M540.78,1018.72l-26.67,30.77l26.67,30.77l26.7-30.77L540.78,1018.72z M523.09,1049.93l18.07-20.85l18.1,20.85
	l-18.1,20.85L523.09,1049.93z"/>
<g>
	<g>
		<polygon class="st0" points="553.39,1049.93 541.16,1064.02 528.93,1049.93 541.16,1035.82 		"/>
	</g>
</g>
<path class="st1" d="M596.78,1018.72l-26.67,30.77l26.67,30.77l26.7-30.77L596.78,1018.72z M579.09,1049.93l18.07-20.85l18.1,20.85
	l-18.1,20.85L579.09,1049.93z"/>
<g>
	<g>
		<polygon class="st0" points="609.39,1049.93 597.16,1064.02 584.93,1049.93 597.16,1035.82 		"/>
	</g>
</g>
<path class="st1" d="M652.78,1018.72l-26.67,30.77l26.67,30.77l26.7-30.77L652.78,1018.72z M635.09,1049.93l18.07-20.85l18.1,20.85
	l-18.1,20.85L635.09,1049.93z"/>
<g>
	<g>
		<polygon class="st0" points="665.39,1049.93 653.16,1064.02 640.93,1049.93 653.16,1035.82 		"/>
	</g>
</g>
<path class="st1" d="M708.78,1018.72l-26.67,30.77l26.67,30.77l26.7-30.77L708.78,1018.72z M691.09,1049.93l18.07-20.85l18.1,20.85
	l-18.1,20.85L691.09,1049.93z"/>
<g>
	<g>
		<polygon class="st0" points="721.39,1049.93 709.16,1064.02 696.93,1049.93 709.16,1035.82 		"/>
	</g>
</g>
<path class="st1" d="M764.78,1018.72l-26.67,30.77l26.67,30.77l26.7-30.77L764.78,1018.72z M747.09,1049.93l18.07-20.85l18.1,20.85
	l-18.1,20.85L747.09,1049.93z"/>
<g>
	<g>
		<polygon class="st0" points="777.39,1049.93 765.16,1064.02 752.93,1049.93 765.16,1035.82 		"/>
	</g>
</g>
<path class="st1" d="M820.78,1018.72l-26.67,30.77l26.67,30.77l26.7-30.77L820.78,1018.72z M803.09,1049.93l18.07-20.85l18.1,20.85
	l-18.1,20.85L803.09,1049.93z"/>
<g>
	<g>
		<polygon class="st0" points="833.39,1049.93 821.16,1064.02 808.93,1049.93 821.16,1035.82 		"/>
	</g>
</g>
<path class="st1" d="M876.78,1018.72l-26.67,30.77l26.67,30.77l26.7-30.77L876.78,1018.72z M859.09,1049.93l18.07-20.85l18.1,20.85
	l-18.1,20.85L859.09,1049.93z"/>
<g>
	<g>
		<polygon class="st0" points="889.39,1049.93 877.16,1064.02 864.93,1049.93 877.16,1035.82 		"/>
	</g>
</g>
<path class="st1" d="M932.78,1018.72l-26.67,30.77l26.67,30.77l26.7-30.77L932.78,1018.72z M915.09,1049.93l18.07-20.85l18.1,20.85
	l-18.1,20.85L915.09,1049.93z"/>
<g>
	<g>
		<polygon class="st0" points="945.39,1049.93 933.16,1064.02 920.93,1049.93 933.16,1035.82 		"/>
	</g>
</g>
<path class="st1" d="M988.78,1018.72l-26.67,30.77l26.67,30.77l26.7-30.77L988.78,1018.72z M971.09,1049.93l18.07-20.85l18.1,20.85
	l-18.1,20.85L971.09,1049.93z"/>
<g>
	<g>
		<polygon class="st0" points="1001.39,1049.93 989.16,1064.02 976.93,1049.93 989.16,1035.82 		"/>
	</g>
</g>
<path class="st1" d="M1044.78,1018.72l-26.67,30.77l26.67,30.77l26.7-30.77L1044.78,1018.72z M1027.09,1049.93l18.07-20.85
	l18.1,20.85l-18.1,20.85L1027.09,1049.93z"/>
<g>
	<g>
		<polygon class="st0" points="1057.39,1049.93 1045.16,1064.02 1032.93,1049.93 1045.16,1035.82 		"/>
	</g>
</g>
<path class="st1" d="M1100.78,1018.72l-26.67,30.77l26.67,30.77l26.7-30.77L1100.78,1018.72z M1083.09,1049.93l18.07-20.85
	l18.1,20.85l-18.1,20.85L1083.09,1049.93z"/>
<g>
	<g>
		<polygon class="st0" points="1113.39,1049.93 1101.16,1064.02 1088.93,1049.93 1101.16,1035.82 		"/>
	</g>
</g>
<path class="st1" d="M1156.78,1018.72l-26.67,30.77l26.67,30.77l26.7-30.77L1156.78,1018.72z M1139.09,1049.93l18.07-20.85
	l18.1,20.85l-18.1,20.85L1139.09,1049.93z"/>
<g>
	<g>
		<polygon class="st0" points="1169.39,1049.93 1157.16,1064.02 1144.93,1049.93 1157.16,1035.82 		"/>
	</g>
</g>
<path class="st1" d="M1212.78,1018.72l-26.67,30.77l26.67,30.77l26.7-30.77L1212.78,1018.72z M1195.09,1049.93l18.07-20.85
	l18.1,20.85l-18.1,20.85L1195.09,1049.93z"/>
<g>
	<g>
		<polygon class="st0" points="1225.39,1049.93 1213.16,1064.02 1200.93,1049.93 1213.16,1035.82 		"/>
	</g>
</g>
<path class="st1" d="M1268.78,1018.72l-26.67,30.77l26.67,30.77l26.7-30.77L1268.78,1018.72z M1251.09,1049.93l18.07-20.85
	l18.1,20.85l-18.1,20.85L1251.09,1049.93z"/>
<g>
	<g>
		<polygon class="st0" points="1281.39,1049.93 1269.16,1064.02 1256.93,1049.93 1269.16,1035.82 		"/>
	</g>
</g>
<path class="st1" d="M1324.78,1018.72l-26.67,30.77l26.67,30.77l26.7-30.77L1324.78,1018.72z M1307.09,1049.93l18.07-20.85
	l18.1,20.85l-18.1,20.85L1307.09,1049.93z"/>
<g>
	<g>
		<polygon class="st0" points="1337.39,1049.93 1325.16,1064.02 1312.93,1049.93 1325.16,1035.82 		"/>
	</g>
</g>
<path class="st1" d="M1380.78,1018.72l-26.67,30.77l26.67,30.77l26.7-30.77L1380.78,1018.72z M1363.09,1049.93l18.07-20.85
	l18.1,20.85l-18.1,20.85L1363.09,1049.93z"/>
<g>
	<g>
		<polygon class="st0" points="1393.39,1049.93 1381.16,1064.02 1368.93,1049.93 1381.16,1035.82 		"/>
	</g>
</g>
<path class="st1" d="M1436.78,1018.72l-26.67,30.77l26.67,30.77l26.7-30.77L1436.78,1018.72z M1419.09,1049.93l18.07-20.85
	l18.1,20.85l-18.1,20.85L1419.09,1049.93z"/>
<g>
	<g>
		<polygon class="st0" points="1449.39,1049.93 1437.16,1064.02 1424.93,1049.93 1437.16,1035.82 		"/>
	</g>
</g>
<path class="st1" d="M1492.78,1018.72l-26.67,30.77l26.67,30.77l26.7-30.77L1492.78,1018.72z M1475.09,1049.93l18.07-20.85
	l18.1,20.85l-18.1,20.85L1475.09,1049.93z"/>
<g>
	<g>
		<polygon class="st0" points="1505.39,1049.93 1493.16,1064.02 1480.93,1049.93 1493.16,1035.82 		"/>
	</g>
</g>
<path class="st1" d="M1548.78,1018.72l-26.67,30.77l26.67,30.77l26.7-30.77L1548.78,1018.72z M1531.09,1049.93l18.07-20.85
	l18.1,20.85l-18.1,20.85L1531.09,1049.93z"/>
<g>
	<g>
		<polygon class="st0" points="1561.39,1049.93 1549.16,1064.02 1536.93,1049.93 1549.16,1035.82 		"/>
	</g>
</g>
<path class="st1" d="M1604.78,1018.72l-26.67,30.77l26.67,30.77l26.7-30.77L1604.78,1018.72z M1587.09,1049.93l18.07-20.85
	l18.1,20.85l-18.1,20.85L1587.09,1049.93z"/>
<g>
	<g>
		<polygon class="st0" points="1617.39,1049.93 1605.16,1064.02 1592.93,1049.93 1605.16,1035.82 		"/>
	</g>
</g>
<path class="st1" d="M1660.78,1018.72l-26.67,30.77l26.67,30.77l26.7-30.77L1660.78,1018.72z M1643.09,1049.93l18.07-20.85
	l18.1,20.85l-18.1,20.85L1643.09,1049.93z"/>
<g>
	<g>
		<polygon class="st0" points="1673.39,1049.93 1661.16,1064.02 1648.93,1049.93 1661.16,1035.82 		"/>
	</g>
</g>
<path class="st1" d="M1716.78,1018.72l-26.67,30.77l26.67,30.77l26.7-30.77L1716.78,1018.72z M1699.09,1049.93l18.07-20.85
	l18.1,20.85l-18.1,20.85L1699.09,1049.93z"/>
<g>
	<g>
		<polygon class="st0" points="1729.39,1049.93 1717.16,1064.02 1704.93,1049.93 1717.16,1035.82 		"/>
	</g>
</g>
<path class="st1" d="M1772.78,1018.72l-26.67,30.77l26.67,30.77l26.7-30.77L1772.78,1018.72z M1755.09,1049.93l18.07-20.85
	l18.1,20.85l-18.1,20.85L1755.09,1049.93z"/>
<g>
	<g>
		<polygon class="st0" points="1785.39,1049.93 1773.16,1064.02 1760.93,1049.93 1773.16,1035.82 		"/>
	</g>
</g>
<path class="st1" d="M1828.78,1018.72l-26.67,30.77l26.67,30.77l26.7-30.77L1828.78,1018.72z M1811.09,1049.93l18.07-20.85
	l18.1,20.85l-18.1,20.85L1811.09,1049.93z"/>
<g>
	<g>
		<polygon class="st0" points="1841.39,1049.93 1829.16,1064.02 1816.93,1049.93 1829.16,1035.82 		"/>
	</g>
</g>
<path class="st1" d="M316.78,1018.72l-26.67,30.77l26.67,30.77l26.7-30.77L316.78,1018.72z M299.09,1049.93l18.07-20.85l18.1,20.85
	l-18.1,20.85L299.09,1049.93z"/>
<g>
	<g>
		<polygon class="st0" points="329.39,1049.93 317.16,1064.02 304.93,1049.93 317.16,1035.82 		"/>
	</g>
</g>
<path class="st1" d="M372.78,1018.72l-26.67,30.77l26.67,30.77l26.7-30.77L372.78,1018.72z M355.09,1049.93l18.07-20.85l18.1,20.85
	l-18.1,20.85L355.09,1049.93z"/>
<g>
	<g>
		<polygon class="st0" points="385.39,1049.93 373.16,1064.02 360.93,1049.93 373.16,1035.82 		"/>
	</g>
</g>
<path class="st1" d="M428.78,1018.72l-26.67,30.77l26.67,30.77l26.7-30.77L428.78,1018.72z M411.09,1049.93l18.07-20.85l18.1,20.85
	l-18.1,20.85L411.09,1049.93z"/>
<g>
	<g>
		<polygon class="st0" points="441.39,1049.93 429.16,1064.02 416.93,1049.93 429.16,1035.82 		"/>
	</g>
</g>
<path class="st1" d="M484.78,1018.72l-26.67,30.77l26.67,30.77l26.7-30.77L484.78,1018.72z M467.09,1049.93l18.07-20.85l18.1,20.85
	l-18.1,20.85L467.09,1049.93z"/>
<g>
	<g>
		<polygon class="st0" points="497.39,1049.93 485.16,1064.02 472.93,1049.93 485.16,1035.82 		"/>
	</g>
</g>
<path class="st1" d="M540.78,1018.72l-26.67,30.77l26.67,30.77l26.7-30.77L540.78,1018.72z M523.09,1049.93l18.07-20.85l18.1,20.85
	l-18.1,20.85L523.09,1049.93z"/>
<g>
	<g>
		<polygon class="st0" points="553.39,1049.93 541.16,1064.02 528.93,1049.93 541.16,1035.82 		"/>
	</g>
</g>
<path class="st1" d="M596.78,1018.72l-26.67,30.77l26.67,30.77l26.7-30.77L596.78,1018.72z M579.09,1049.93l18.07-20.85l18.1,20.85
	l-18.1,20.85L579.09,1049.93z"/>
<g>
	<g>
		<polygon class="st0" points="609.39,1049.93 597.16,1064.02 584.93,1049.93 597.16,1035.82 		"/>
	</g>
</g>
<path class="st1" d="M652.78,1018.72l-26.67,30.77l26.67,30.77l26.7-30.77L652.78,1018.72z M635.09,1049.93l18.07-20.85l18.1,20.85
	l-18.1,20.85L635.09,1049.93z"/>
<g>
	<g>
		<polygon class="st0" points="665.39,1049.93 653.16,1064.02 640.93,1049.93 653.16,1035.82 		"/>
	</g>
</g>
<path class="st1" d="M708.78,1018.72l-26.67,30.77l26.67,30.77l26.7-30.77L708.78,1018.72z M691.09,1049.93l18.07-20.85l18.1,20.85
	l-18.1,20.85L691.09,1049.93z"/>
<g>
	<g>
		<polygon class="st0" points="721.39,1049.93 709.16,1064.02 696.93,1049.93 709.16,1035.82 		"/>
	</g>
</g>
<path class="st1" d="M764.78,1018.72l-26.67,30.77l26.67,30.77l26.7-30.77L764.78,1018.72z M747.09,1049.93l18.07-20.85l18.1,20.85
	l-18.1,20.85L747.09,1049.93z"/>
<g>
	<g>
		<polygon class="st0" points="777.39,1049.93 765.16,1064.02 752.93,1049.93 765.16,1035.82 		"/>
	</g>
</g>
<path class="st1" d="M820.78,1018.72l-26.67,30.77l26.67,30.77l26.7-30.77L820.78,1018.72z M803.09,1049.93l18.07-20.85l18.1,20.85
	l-18.1,20.85L803.09,1049.93z"/>
<g>
	<g>
		<polygon class="st0" points="833.39,1049.93 821.16,1064.02 808.93,1049.93 821.16,1035.82 		"/>
	</g>
</g>
<path class="st1" d="M876.78,1018.72l-26.67,30.77l26.67,30.77l26.7-30.77L876.78,1018.72z M859.09,1049.93l18.07-20.85l18.1,20.85
	l-18.1,20.85L859.09,1049.93z"/>
<g>
	<g>
		<polygon class="st0" points="889.39,1049.93 877.16,1064.02 864.93,1049.93 877.16,1035.82 		"/>
	</g>
</g>
<path class="st1" d="M932.78,1018.72l-26.67,30.77l26.67,30.77l26.7-30.77L932.78,1018.72z M915.09,1049.93l18.07-20.85l18.1,20.85
	l-18.1,20.85L915.09,1049.93z"/>
<g>
	<g>
		<polygon class="st0" points="945.39,1049.93 933.16,1064.02 920.93,1049.93 933.16,1035.82 		"/>
	</g>
</g>
<path class="st1" d="M988.78,1018.72l-26.67,30.77l26.67,30.77l26.7-30.77L988.78,1018.72z M971.09,1049.93l18.07-20.85l18.1,20.85
	l-18.1,20.85L971.09,1049.93z"/>
<g>
	<g>
		<polygon class="st0" points="1001.39,1049.93 989.16,1064.02 976.93,1049.93 989.16,1035.82 		"/>
	</g>
</g>
<path class="st1" d="M1044.78,1018.72l-26.67,30.77l26.67,30.77l26.7-30.77L1044.78,1018.72z M1027.09,1049.93l18.07-20.85
	l18.1,20.85l-18.1,20.85L1027.09,1049.93z"/>
<g>
	<g>
		<polygon class="st0" points="1057.39,1049.93 1045.16,1064.02 1032.93,1049.93 1045.16,1035.82 		"/>
	</g>
</g>
<path class="st1" d="M1100.78,1018.72l-26.67,30.77l26.67,30.77l26.7-30.77L1100.78,1018.72z M1083.09,1049.93l18.07-20.85
	l18.1,20.85l-18.1,20.85L1083.09,1049.93z"/>
<g>
	<g>
		<polygon class="st0" points="1113.39,1049.93 1101.16,1064.02 1088.93,1049.93 1101.16,1035.82 		"/>
	</g>
</g>
<path class="st1" d="M1156.78,1018.72l-26.67,30.77l26.67,30.77l26.7-30.77L1156.78,1018.72z M1139.09,1049.93l18.07-20.85
	l18.1,20.85l-18.1,20.85L1139.09,1049.93z"/>
<g>
	<g>
		<polygon class="st0" points="1169.39,1049.93 1157.16,1064.02 1144.93,1049.93 1157.16,1035.82 		"/>
	</g>
</g>
<path class="st1" d="M1212.78,1018.72l-26.67,30.77l26.67,30.77l26.7-30.77L1212.78,1018.72z M1195.09,1049.93l18.07-20.85
	l18.1,20.85l-18.1,20.85L1195.09,1049.93z"/>
<g>
	<g>
		<polygon class="st0" points="1225.39,1049.93 1213.16,1064.02 1200.93,1049.93 1213.16,1035.82 		"/>
	</g>
</g>
<path class="st1" d="M1268.78,1018.72l-26.67,30.77l26.67,30.77l26.7-30.77L1268.78,1018.72z M1251.09,1049.93l18.07-20.85
	l18.1,20.85l-18.1,20.85L1251.09,1049.93z"/>
<g>
	<g>
		<polygon class="st0" points="1281.39,1049.93 1269.16,1064.02 1256.93,1049.93 1269.16,1035.82 		"/>
	</g>
</g>
<path class="st1" d="M1324.78,1018.72l-26.67,30.77l26.67,30.77l26.7-30.77L1324.78,1018.72z M1307.09,1049.93l18.07-20.85
	l18.1,20.85l-18.1,20.85L1307.09,1049.93z"/>
<g>
	<g>
		<polygon class="st0" points="1337.39,1049.93 1325.16,1064.02 1312.93,1049.93 1325.16,1035.82 		"/>
	</g>
</g>
<path class="st1" d="M1380.78,1018.72l-26.67,30.77l26.67,30.77l26.7-30.77L1380.78,1018.72z M1363.09,1049.93l18.07-20.85
	l18.1,20.85l-18.1,20.85L1363.09,1049.93z"/>
<g>
	<g>
		<polygon class="st0" points="1393.39,1049.93 1381.16,1064.02 1368.93,1049.93 1381.16,1035.82 		"/>
	</g>
</g>
<path class="st1" d="M1436.78,1018.72l-26.67,30.77l26.67,30.77l26.7-30.77L1436.78,1018.72z M1419.09,1049.93l18.07-20.85
	l18.1,20.85l-18.1,20.85L1419.09,1049.93z"/>
<g>
	<g>
		<polygon class="st0" points="1449.39,1049.93 1437.16,1064.02 1424.93,1049.93 1437.16,1035.82 		"/>
	</g>
</g>
<path class="st1" d="M1492.78,1018.72l-26.67,30.77l26.67,30.77l26.7-30.77L1492.78,1018.72z M1475.09,1049.93l18.07-20.85
	l18.1,20.85l-18.1,20.85L1475.09,1049.93z"/>
<g>
	<g>
		<polygon class="st0" points="1505.39,1049.93 1493.16,1064.02 1480.93,1049.93 1493.16,1035.82 		"/>
	</g>
</g>
<path class="st1" d="M1548.78,1018.72l-26.67,30.77l26.67,30.77l26.7-30.77L1548.78,1018.72z M1531.09,1049.93l18.07-20.85
	l18.1,20.85l-18.1,20.85L1531.09,1049.93z"/>
<g>
	<g>
		<polygon class="st0" points="1561.39,1049.93 1549.16,1064.02 1536.93,1049.93 1549.16,1035.82 		"/>
	</g>
</g>
<path class="st1" d="M1604.78,1018.72l-26.67,30.77l26.67,30.77l26.7-30.77L1604.78,1018.72z M1587.09,1049.93l18.07-20.85
	l18.1,20.85l-18.1,20.85L1587.09,1049.93z"/>
<g>
	<g>
		<polygon class="st0" points="1617.39,1049.93 1605.16,1064.02 1592.93,1049.93 1605.16,1035.82 		"/>
	</g>
</g>
<path class="st1" d="M1660.78,1018.72l-26.67,30.77l26.67,30.77l26.7-30.77L1660.78,1018.72z M1643.09,1049.93l18.07-20.85
	l18.1,20.85l-18.1,20.85L1643.09,1049.93z"/>
<g>
	<g>
		<polygon class="st0" points="1673.39,1049.93 1661.16,1064.02 1648.93,1049.93 1661.16,1035.82 		"/>
	</g>
</g>
<path class="st1" d="M1716.78,1018.72l-26.67,30.77l26.67,30.77l26.7-30.77L1716.78,1018.72z M1699.09,1049.93l18.07-20.85
	l18.1,20.85l-18.1,20.85L1699.09,1049.93z"/>
<g>
	<g>
		<polygon class="st0" points="1729.39,1049.93 1717.16,1064.02 1704.93,1049.93 1717.16,1035.82 		"/>
	</g>
</g>
<path class="st1" d="M1772.78,1018.72l-26.67,30.77l26.67,30.77l26.7-30.77L1772.78,1018.72z M1755.09,1049.93l18.07-20.85
	l18.1,20.85l-18.1,20.85L1755.09,1049.93z"/>
<g>
	<g>
		<polygon class="st0" points="1785.39,1049.93 1773.16,1064.02 1760.93,1049.93 1773.16,1035.82 		"/>
	</g>
</g>
<path class="st1" d="M1828.78,1018.72l-26.67,30.77l26.67,30.77l26.7-30.77L1828.78,1018.72z M1811.09,1049.93l18.07-20.85
	l18.1,20.85l-18.1,20.85L1811.09,1049.93z"/>
<g>
	<g>
		<polygon class="st0" points="1841.39,1049.93 1829.16,1064.02 1816.93,1049.93 1829.16,1035.82 		"/>
	</g>
</g>
<path class="st1" d="M1884.78,1018.72l-26.67,30.77l26.67,30.77l26.7-30.77L1884.78,1018.72z M1867.09,1049.93l18.07-20.85
	l18.1,20.85l-18.1,20.85L1867.09,1049.93z"/>
<g>
	<g>
		<polygon class="st0" points="1897.39,1049.93 1885.16,1064.02 1872.93,1049.93 1885.16,1035.82 		"/>
	</g>
</g>
<rect x="-69" y="-41" class="st1" width="1999" height="75"/>
</svg>
