<?xml version="1.0" encoding="utf-8"?>
<!-- Generator: Adobe Illustrator 24.2.1, SVG Export Plug-In . SVG Version: 6.00 Build 0)  -->
<svg version="1.1" id="Layer_1" xmlns="http://www.w3.org/2000/svg" xmlns:xlink="http://www.w3.org/1999/xlink" x="0px" y="0px"
	 viewBox="0 0 447.99 166.42" style="enable-background:new 0 0 447.99 166.42;" xml:space="preserve">
<style type="text/css">
	.st0{fill:#231F20;}
	.st1{fill:#2454A2;}
	.st2{fill:#F7A421;}
	.st3{fill:#1AA84F;}
</style>
<g>
	<g>
		<g>
			<path class="st0" d="M166.62,60.83h6.43V76.4h11.9l8.56-15.57h7.28l-10.57,18.76l7.71,20.35h-7.28l-5.85-16.15h-11.74v16.15
				h-6.43V60.83z"/>
			<path class="st0" d="M221.41,100.48c-11.11,0-16.95-5.9-16.95-16.63V60.83h6.43v22.11c0,6.32,4.04,9.83,10.52,9.83
				c6.54,0,10.52-3.51,10.52-9.83V60.83h6.48v23.01C238.41,94.58,232.57,100.48,221.41,100.48z"/>
			<path class="st0" d="M245.05,60.83h18.71c10.2,0,13.98,5.26,13.98,11.96c0,5.85-3.19,9.41-8.98,10.84l5.15,16.31H267l-3.88-13.18
				h-11.64v13.18h-6.43V60.83z M263.07,80.12c6.06,0,8.18-2.44,8.18-6.01c0-3.35-2.02-5.9-8.18-5.9h-11.58v11.9H263.07z"/>
			<path class="st0" d="M280.44,80.39c0-11.32,7.23-20.09,19.82-20.09c12.59,0,19.87,8.77,19.87,20.09
				c0,11.37-7.28,20.09-19.87,20.09C287.67,100.48,280.44,91.76,280.44,80.39z M300.27,92.77c8.87,0,13.39-5.47,13.39-12.38
				c0-6.96-4.52-12.33-13.39-12.33c-8.87,0-13.39,5.37-13.39,12.33C286.87,87.3,291.39,92.77,300.27,92.77z"/>
			<path class="st0" d="M324.07,80.39c0-11.32,7.23-20.09,19.82-20.09c12.59,0,19.87,8.77,19.87,20.09
				c0,11.37-7.28,20.09-19.87,20.09C331.3,100.48,324.07,91.76,324.07,80.39z M343.89,92.77c8.87,0,13.39-5.47,13.39-12.38
				c0-6.96-4.52-12.33-13.39-12.33c-8.87,0-13.39,5.37-13.39,12.33C330.5,87.3,335.02,92.77,343.89,92.77z"/>
			<path class="st0" d="M385.82,100.48c-11.11,0-16.95-5.9-16.95-16.63V60.83h6.43v22.11c0,6.32,4.04,9.83,10.52,9.83
				c6.54,0,10.52-3.51,10.52-9.83V60.83h6.48v23.01C402.82,94.58,396.98,100.48,385.82,100.48z"/>
		</g>
	</g>
	<g>
		<polygon class="st1" points="86.22,94.24 86.22,86.79 74.23,66.03 94.06,31.68 113.91,66.03 101.92,86.79 101.92,94.23 
			108.36,90.51 122.5,66.03 98.51,24.5 94.06,16.78 65.64,66.03 79.77,90.52 		"/>
		<path class="st2" d="M79.81,104.12H47.02v7.44h24.81C74.03,108.57,76.73,106.04,79.81,104.12z"/>
		<path class="st2" d="M90.35,85.69v4.13v4.13v6.3c1.14-0.16,2.31-0.25,3.49-0.26c0.08,0,0.15-0.01,0.23-0.01
			c0.08,0,0.15,0.01,0.23,0.01c1.18,0.01,2.35,0.1,3.49,0.26v-6.31l0-4.13v-4.13l0-19.65h-7.44V85.69z"/>
		<path class="st2" d="M82.11,102.83c0.62-0.31,1.25-0.59,1.89-0.86c0.65-0.26,1.3-0.5,1.97-0.72c0.93-0.3,1.88-0.54,2.85-0.74
			l-4.92-2.84l-3.58-2.07l-3.58-2.07L48.88,77.45l-3.72,6.44l34.83,20.11C80.68,103.58,81.38,103.19,82.11,102.83z"/>
		<path class="st2" d="M116.3,111.56h24.74v-7.44h-32.72C111.4,106.04,114.11,108.57,116.3,111.56z"/>
		<path class="st2" d="M107.81,95.61l-3.58,2.07l-4.92,2.84c0.97,0.19,1.92,0.44,2.86,0.74c0.67,0.21,1.33,0.45,1.97,0.72
			c0.64,0.26,1.27,0.55,1.89,0.86c0.72,0.36,1.43,0.76,2.11,1.18l34.76-20.07l-3.72-6.44l-27.79,16.04L107.81,95.61z"/>
		<path class="st3" d="M112.7,113.62c-0.55-0.72-1.14-1.41-1.76-2.07c-2.01-2.13-4.38-3.88-6.98-5.14c-0.62-0.3-1.26-0.58-1.91-0.83
			c-0.66-0.25-1.32-0.47-2.01-0.66c-1.91-0.53-3.91-0.81-5.97-0.81c-2.06,0-4.06,0.28-5.97,0.81c-0.68,0.19-1.35,0.41-2.01,0.66
			c-0.65,0.25-1.29,0.52-1.91,0.83c-2.61,1.27-4.97,3.01-6.98,5.14c-0.62,0.65-1.21,1.34-1.76,2.07c-0.5,0.66-0.98,1.35-1.42,2.07
			c-2.54,4.1-4.03,9.03-4.03,14.32v19.64h7.44v-19.64c0-5.77,2.41-10.93,6.16-14.32c0.88-0.79,1.83-1.48,2.85-2.07
			c0.48-0.27,0.97-0.52,1.47-0.75c0.64-0.28,1.29-0.53,1.97-0.72c0.59-0.17,1.2-0.31,1.82-0.4c0.77-0.12,1.57-0.19,2.37-0.19
			c0.97,0,1.91,0.1,2.83,0.27c0.46,0.09,0.91,0.19,1.36,0.32c0.67,0.19,1.33,0.44,1.97,0.72c0.5,0.22,1,0.47,1.47,0.75
			c1.01,0.58,1.97,1.27,2.85,2.07c3.76,3.38,6.16,8.54,6.16,14.32v19.64h7.44v-19.64c0-5.29-1.49-10.21-4.03-14.32
			C113.67,114.98,113.2,114.28,112.7,113.62z"/>
	</g>
</g>
<g>
	<path d="M177.05,108.17v1.96h-8.4v4.16h7.39v1.93h-7.39v4.72h8.8v1.98h-11v-14.74H177.05z"/>
	<path d="M193.31,115.78v1.85h-6.62v-1.85H193.31z"/>
	<path d="M205.39,108.17v12.76h8.49v1.98h-10.73v-14.74H205.39z"/>
	<path d="M218.14,118.02c0.12,1.05,0.53,1.85,1.21,2.42c0.69,0.57,1.6,0.85,2.75,0.85c1.53,0,2.84-0.41,3.95-1.22l0.97,1.51
		c-0.73,0.56-1.5,0.96-2.3,1.21c-0.8,0.25-1.69,0.38-2.66,0.38c-1.88,0-3.37-0.52-4.45-1.57s-1.63-2.47-1.63-4.29
		c0-1.12,0.25-2.13,0.76-3.03s1.22-1.6,2.15-2.11c0.93-0.51,1.99-0.76,3.17-0.76c1.58,0,2.85,0.48,3.82,1.44
		c0.97,0.96,1.46,2.23,1.46,3.79c0,0.39-0.05,0.85-0.15,1.36H218.14z M225.17,116.27c-0.01-0.94-0.29-1.67-0.83-2.2
		c-0.54-0.53-1.33-0.79-2.38-0.79c-1.05,0-1.89,0.26-2.52,0.79c-0.64,0.53-1.04,1.26-1.21,2.21H225.17z"/>
	<path d="M230.1,112.73c1.37-0.87,2.91-1.3,4.62-1.3c1.7,0,2.97,0.39,3.8,1.17c0.83,0.78,1.24,1.89,1.24,3.34v4.11
		c0,0.87,0.29,1.3,0.88,1.3c0.16,0,0.31-0.03,0.46-0.1l0.19,1.63c-0.29,0.14-0.67,0.21-1.12,0.21c-0.59,0-1.07-0.14-1.43-0.44
		c-0.36-0.29-0.59-0.77-0.71-1.46c-0.95,1.31-2.4,1.97-4.35,1.97c-1.35,0-2.4-0.32-3.17-0.97c-0.77-0.65-1.15-1.57-1.15-2.78
		c0-1.13,0.45-2.02,1.34-2.66s2.12-0.97,3.67-0.97c1.12,0,2.22,0.19,3.28,0.56v-0.62c0-0.82-0.24-1.43-0.71-1.83
		c-0.47-0.4-1.2-0.61-2.19-0.61c-1.3,0-2.57,0.32-3.8,0.97L230.1,112.73z M237.69,118.02c-0.92-0.32-1.99-0.48-3.21-0.48
		c-1.01,0-1.75,0.17-2.22,0.52c-0.47,0.35-0.7,0.82-0.7,1.42c0,1.25,0.84,1.87,2.52,1.87c1,0,1.85-0.27,2.56-0.81
		s1.05-1.22,1.05-2.04V118.02z"/>
	<path d="M245.38,111.7l0.2,2.33c0.39-0.84,0.95-1.49,1.68-1.93s1.6-0.67,2.61-0.67c1.37,0,2.52,0.4,3.46,1.19l-1.19,1.64
		c-0.69-0.6-1.58-0.9-2.66-0.9c-0.87,0-1.62,0.29-2.25,0.86c-0.63,0.57-1.11,1.36-1.42,2.35v6.34h-2.13V111.7H245.38z"/>
	<path d="M257.25,111.7l0.23,2.33c0.39-0.84,0.95-1.48,1.68-1.93c0.72-0.45,1.59-0.67,2.59-0.67c1.46,0,2.61,0.42,3.45,1.26
		c0.84,0.84,1.26,2.04,1.26,3.6v6.62h-2.13v-6.38c0-1.09-0.24-1.9-0.73-2.44c-0.49-0.54-1.19-0.81-2.12-0.81
		c-0.9,0-1.68,0.29-2.34,0.88c-0.66,0.58-1.14,1.41-1.45,2.46v6.29h-2.13V111.7H257.25z"/>
	<path d="M270.75,106.54c0.41,0,0.76,0.14,1.05,0.41c0.29,0.28,0.44,0.63,0.44,1.07c0,0.43-0.15,0.78-0.44,1.05
		c-0.29,0.27-0.64,0.4-1.05,0.4c-0.42,0-0.78-0.13-1.06-0.4c-0.29-0.27-0.43-0.62-0.43-1.05c0-0.44,0.14-0.8,0.43-1.07
		S270.33,106.54,270.75,106.54z M271.83,111.7v11.21h-2.17V111.7H271.83z"/>
	<path d="M276.73,111.7l0.23,2.33c0.39-0.84,0.95-1.48,1.68-1.93c0.72-0.45,1.59-0.67,2.59-0.67c1.46,0,2.61,0.42,3.45,1.26
		c0.84,0.84,1.26,2.04,1.26,3.6v6.62h-2.13v-6.38c0-1.09-0.24-1.9-0.73-2.44c-0.49-0.54-1.19-0.81-2.12-0.81
		c-0.9,0-1.68,0.29-2.34,0.88c-0.66,0.58-1.14,1.41-1.45,2.46v6.29h-2.13V111.7H276.73z"/>
	<path d="M300.52,112.73l-1.96,0.44c0.59,0.63,0.88,1.39,0.88,2.29c0,1.13-0.44,2.08-1.32,2.85c-0.88,0.77-2.06,1.15-3.55,1.15
		c-1.17,0-2.16-0.26-2.96-0.78c-0.53,0.28-0.79,0.73-0.79,1.34c0,0.47,0.15,0.8,0.46,1.01c0.3,0.21,0.78,0.31,1.41,0.31h3.54
		c1.36,0,2.38,0.3,3.07,0.91c0.68,0.61,1.03,1.41,1.03,2.41c0,1.3-0.6,2.4-1.79,3.29s-2.74,1.33-4.63,1.33
		c-1.73,0-3.03-0.35-3.9-1.05s-1.31-1.67-1.31-2.91c0-1.19,0.41-2.19,1.22-3.01c-0.7-0.52-1.05-1.24-1.05-2.16
		c0-1.07,0.53-1.95,1.58-2.62c-0.41-0.54-0.61-1.22-0.61-2.06c0-1.16,0.43-2.12,1.29-2.88c0.86-0.76,2.09-1.14,3.68-1.14h2.14
		l3.41-0.31L300.52,112.73z M291.49,123.04c-0.49,0.49-0.73,1.15-0.73,1.99c0,0.78,0.28,1.38,0.84,1.79s1.36,0.62,2.42,0.62
		c1.29,0,2.32-0.25,3.09-0.75c0.77-0.5,1.16-1.17,1.16-2c0-0.53-0.17-0.92-0.5-1.18s-0.88-0.39-1.64-0.39h-3.46L291.49,123.04z
		 M294.56,113.21c-0.87,0-1.53,0.19-1.98,0.57c-0.45,0.38-0.67,0.93-0.67,1.65c0,0.69,0.23,1.24,0.69,1.65
		c0.46,0.41,1.12,0.62,1.98,0.62c0.83,0,1.5-0.2,2-0.6c0.5-0.4,0.75-0.95,0.75-1.67c0-0.96-0.37-1.7-1.12-2.22H294.56z"/>
	<path d="M316.43,108.17c1.64,0,2.98,0.47,4.02,1.41c1.04,0.94,1.56,2.17,1.56,3.7c0,1.05-0.26,1.97-0.78,2.77
		c-0.52,0.79-1.22,1.39-2.1,1.79c-0.88,0.41-1.86,0.61-2.95,0.61h-3.76v4.47h-2.27v-14.74H316.43z M312.42,116.51h3.72
		c1.12,0,2-0.29,2.65-0.85c0.65-0.57,0.98-1.36,0.98-2.36s-0.3-1.79-0.91-2.35c-0.61-0.56-1.46-0.84-2.57-0.84h-3.87V116.51z"/>
	<path d="M326.91,107.23v15.68h-2.13v-15.68H326.91z"/>
	<path d="M330.23,112.73c1.37-0.87,2.91-1.3,4.62-1.3c1.7,0,2.97,0.39,3.8,1.17c0.83,0.78,1.24,1.89,1.24,3.34v4.11
		c0,0.87,0.29,1.3,0.88,1.3c0.16,0,0.31-0.03,0.46-0.1l0.19,1.63c-0.29,0.14-0.67,0.21-1.12,0.21c-0.59,0-1.07-0.14-1.43-0.44
		c-0.36-0.29-0.59-0.77-0.71-1.46c-0.95,1.31-2.4,1.97-4.35,1.97c-1.35,0-2.4-0.32-3.17-0.97c-0.77-0.65-1.15-1.57-1.15-2.78
		c0-1.13,0.45-2.02,1.34-2.66s2.12-0.97,3.67-0.97c1.12,0,2.22,0.19,3.28,0.56v-0.62c0-0.82-0.24-1.43-0.71-1.83
		c-0.47-0.4-1.2-0.61-2.19-0.61c-1.3,0-2.57,0.32-3.8,0.97L330.23,112.73z M337.82,118.02c-0.92-0.32-1.99-0.48-3.21-0.48
		c-1.01,0-1.75,0.17-2.22,0.52c-0.47,0.35-0.7,0.82-0.7,1.42c0,1.25,0.84,1.87,2.52,1.87c1,0,1.85-0.27,2.56-0.81
		s1.05-1.22,1.05-2.04V118.02z"/>
	<path d="M344.75,111.7l0.37-3.08l1.94,0.09l-0.12,3h4.14v1.87h-4.06v5.59c0,0.73,0.16,1.26,0.48,1.59
		c0.32,0.33,0.81,0.49,1.48,0.49c0.8,0,1.51-0.22,2.13-0.66l0.79,1.6c-0.93,0.67-2.02,1-3.25,1c-1.22,0-2.16-0.34-2.81-1.01
		c-0.65-0.67-0.97-1.69-0.97-3.06v-5.54H343v-1.74L344.75,111.7z"/>
	<path d="M355.12,111.67v-1.01c0-0.48,0.05-0.93,0.16-1.36c0.11-0.43,0.28-0.82,0.5-1.18c0.23-0.36,0.51-0.67,0.85-0.94
		c0.34-0.26,0.76-0.46,1.25-0.61c0.49-0.15,1.04-0.22,1.64-0.22c1.47,0,2.69,0.38,3.65,1.14l-1.02,1.53
		c-0.75-0.52-1.59-0.77-2.52-0.77c-1.58,0-2.37,0.79-2.37,2.37v1.08h3.61v1.87h-3.61v9.35h-2.14v-9.35h-1.83v-1.78L355.12,111.67z"
		/>
	<path d="M368.62,111.43c1.8,0,3.27,0.55,4.4,1.64c1.13,1.09,1.69,2.5,1.69,4.24c0,1.68-0.58,3.08-1.73,4.2s-2.61,1.68-4.36,1.68
		c-1.81,0-3.28-0.55-4.41-1.64c-1.13-1.09-1.69-2.5-1.69-4.24c0-1.69,0.57-3.09,1.71-4.21
		C365.38,111.99,366.84,111.43,368.62,111.43z M368.62,113.26c-1.2,0-2.16,0.38-2.88,1.13s-1.08,1.73-1.08,2.92
		c0,1.2,0.37,2.18,1.1,2.93c0.73,0.75,1.69,1.12,2.87,1.12c1.21,0,2.17-0.37,2.88-1.12c0.71-0.75,1.07-1.72,1.07-2.93
		c0-1.17-0.37-2.14-1.1-2.91C370.75,113.64,369.8,113.26,368.62,113.26z"/>
	<path d="M379.09,111.7l0.2,2.33c0.39-0.84,0.95-1.49,1.68-1.93s1.6-0.67,2.61-0.67c1.37,0,2.52,0.4,3.46,1.19l-1.19,1.64
		c-0.69-0.6-1.58-0.9-2.66-0.9c-0.87,0-1.62,0.29-2.25,0.86c-0.63,0.57-1.11,1.36-1.42,2.35v6.34h-2.13V111.7H379.09z"/>
	<path d="M391,111.7l0.23,2.17c0.77-1.63,2.06-2.44,3.87-2.44c0.84,0,1.58,0.17,2.21,0.51c0.63,0.34,1.1,0.84,1.4,1.49
		c0.42-0.64,0.98-1.14,1.69-1.48s1.48-0.52,2.32-0.52c1.45,0,2.54,0.41,3.29,1.22c0.75,0.82,1.12,1.98,1.12,3.5v6.76h-2.17v-6.6
		c0-0.98-0.21-1.73-0.64-2.26c-0.43-0.52-1.05-0.78-1.88-0.78c-1.3,0-2.32,0.66-3.05,1.98c0.06,0.26,0.09,0.57,0.09,0.95v6.71h-2.16
		v-6.6c0-2.03-0.86-3.04-2.58-3.04c-0.75,0-1.41,0.28-1.99,0.84s-1.02,1.34-1.31,2.35v6.45h-2.17V111.7H391z"/>
</g>
</svg>
