<?xml version="1.0" encoding="utf-8"?>
<!-- Generator: Adobe Illustrator 24.2.1, SVG Export Plug-In . SVG Version: 6.00 Build 0)  -->
<svg version="1.1" id="Layer_1" xmlns="http://www.w3.org/2000/svg" xmlns:xlink="http://www.w3.org/1999/xlink" x="0px" y="0px"
	 viewBox="0 0 1080 1080" style="enable-background:new 0 0 1080 1080;" xml:space="preserve">
<style type="text/css">
	.st0{fill:#223568;}
</style>
<g>
	<g>
		<g>
			<path class="st0" d="M130.45,755.84h31.39v57.93h40.73l30.77-57.93H269l-39.91,71.91l29.78,77.59h-35.66l-20.45-57.53h-40.92
				v57.53h-31.39V755.84z"/>
			<path class="st0" d="M282.28,755.84h115.27v34.03h-83.88v27.15h75.78v25.32h-75.78v28.97h78v34.03H282.28V755.84z"/>
			<path class="st0" d="M416.1,755.84h64.21c49.02,0,75.36,30.38,75.36,74.74c0,44.37-26.33,74.75-75.36,74.75H416.1V755.84z
				 M478.68,871.3c30.18,0,45.58-16.81,45.58-40.72c0-23.9-15.4-40.71-45.58-40.71h-31.2v81.44H478.68z"/>
			<path class="st0" d="M574.63,755.84H689.9v34.03h-83.88v27.15h75.78v25.32h-75.78v28.97h78v34.03H574.63V755.84z"/>
			<path class="st0" d="M708.42,755.84h115.27v34.03h-83.88v27.15h75.78v25.32h-75.78v28.97h78v34.03H708.42V755.84z"/>
			<path class="st0" d="M842.22,755.84h31.39v114.85h76.18v34.64H842.22V755.84z"/>
		</g>
		<g>
			<g>
				<path class="st0" d="M123.85,952.86h4.29v35.66h-4.29V952.86z"/>
				<path class="st0" d="M139.27,952.86h5.52l18.1,27.98l0.82,1.47h0.23v-29.45h4.21v35.66h-5.37l-18.4-28.17l-0.68-1.27h-0.23
					v29.44h-4.21V952.86z"/>
				<path class="st0" d="M190.11,956.67v31.84h-4.34v-31.84h-11.55v-3.82h27.39v3.82H190.11z"/>
				<path class="st0" d="M207.73,952.86h24.64v3.82h-20.35v11.79h17.96v3.56h-17.96v12.67h20.35v3.82h-24.64V952.86z"/>
				<path class="st0" d="M237.34,970.96v-0.25c0-12.08,6.56-18.28,16.88-18.28c8.38,0,14.49,4.49,15.31,11.44h-4.46
					c-0.97-4.9-5.27-7.62-10.89-7.62c-8.08,0-12.22,5.03-12.22,11.98v5.03c0,7.77,4.74,11.98,11.82,11.98
					c7.3,0,11.36-4.36,11.36-11.2v-0.49h-10.51v-3.33h15.1v18.29h-3.28l-0.34-7.49h-0.25c-1.46,4.8-6.45,7.97-12.61,7.97
					C242.63,989,237.34,982.2,237.34,970.96z"/>
				<path class="st0" d="M279.93,952.86h15.29c7.83,0,11.95,4.02,11.95,10.91c0,5.77-3.19,9.73-9.24,10.47l9.62,14.28h-5.14
					l-9.28-13.79h-8.9v13.79h-4.29V952.86z M284.23,956.67v14.57h10.22c4.99,0,8.08-2.1,8.08-6.06v-2.44c0-3.91-3.02-6.07-8.08-6.07
					H284.23z"/>
				<path class="st0" d="M323.88,952.86h6.01l12.92,35.66h-4.36l-3.24-9h-16.77l-3.28,9h-4.25L323.88,952.86z M334.1,976.14
					l-4.5-12.37l-2.64-7.29h-0.27l-2.71,7.38l-4.44,12.28H334.1z"/>
				<path class="st0" d="M356.31,956.67v31.84h-4.34v-31.84h-11.55v-3.82h27.39v3.82H356.31z"/>
				<path class="st0" d="M373.92,952.86h24.64v3.82h-20.35v11.79h17.96v3.56h-17.96v12.67h20.35v3.82h-24.64V952.86z"/>
				<path class="st0" d="M407.17,952.86h13.3c10.32,0,16.52,5.83,16.52,17.61v0.39c0,12.28-6.6,17.66-16.52,17.66h-13.3V952.86z
					 M420.41,984.7c7.49,0,11.95-4.06,11.95-11.54v-4.94c0-6.95-3.91-11.55-11.95-11.55h-8.95v28.02H420.41z"/>
				<path class="st0" d="M457.99,952.86h13.3c10.32,0,16.52,5.83,16.52,17.61v0.39c0,12.28-6.6,17.66-16.52,17.66h-13.3V952.86z
					 M471.23,984.7c7.49,0,11.95-4.06,11.95-11.54v-4.94c0-6.95-3.91-11.55-11.95-11.55h-8.95v28.02H471.23z"/>
				<path class="st0" d="M495.91,952.86h4.29v35.66h-4.29V952.86z"/>
				<path class="st0" d="M508.31,970.96v-0.25c0-12.08,6.56-18.28,16.88-18.28c8.38,0,14.49,4.49,15.31,11.44h-4.46
					c-0.97-4.9-5.27-7.62-10.89-7.62c-8.08,0-12.22,5.03-12.22,11.98v5.03c0,7.77,4.74,11.98,11.82,11.98
					c7.3,0,11.36-4.36,11.36-11.2v-0.49h-10.51v-3.33h15.1v18.29h-3.28l-0.34-7.49h-0.25c-1.46,4.8-6.45,7.97-12.61,7.97
					C513.59,989,508.31,982.2,508.31,970.96z"/>
				<path class="st0" d="M550.9,952.86h4.29v35.66h-4.29V952.86z"/>
				<path class="st0" d="M577.21,956.67v31.84h-4.36v-31.84h-11.53v-3.82h27.39v3.82H577.21z"/>
				<path class="st0" d="M599.34,952.86h6.01l12.92,35.66h-4.36l-3.24-9H593.9l-3.28,9h-4.25L599.34,952.86z M609.55,976.14
					l-4.5-12.37l-2.64-7.29h-0.27l-2.71,7.38l-4.44,12.28H609.55z"/>
				<path class="st0" d="M624.04,952.86h4.29v31.75h18.93v3.91h-23.22V952.86z"/>
				<path class="st0" d="M665.85,977.41h4.46c0.23,5.63,3.72,8.03,9.39,8.03c5.92,0,8.76-2.55,8.76-6.61c0-4.99-4.65-5.82-9.98-6.94
					c-6.26-1.28-11.55-3.24-11.55-9.69c0-6.11,5.03-9.83,12.67-9.83c8.27,0,12.71,4.11,12.86,10.51h-4.48
					c-0.21-4.35-2.83-6.99-8.46-6.99c-4.84,0-7.89,2.29-7.89,5.92c0,4.45,4.21,5.28,9.39,6.3c6.32,1.17,12.14,3.18,12.14,10.42
					c0,7.1-5.44,10.47-13.56,10.47C670.4,989,665.85,984.16,665.85,977.41z"/>
				<path class="st0" d="M698.99,970.81v-0.2c0-11.89,6.47-18.19,16.77-18.19c10.32,0,16.84,6.3,16.84,18.19v0.2
					c0,11.93-6.37,18.19-16.84,18.19C705.32,989,698.99,982.74,698.99,970.81z M727.95,973.2v-4.98c0-7-4.1-11.98-12.18-11.98
					c-8.06,0-12.16,4.98-12.16,11.98v4.98c0,7.15,4.29,11.99,12.16,11.99C723.65,985.19,727.95,980.35,727.95,973.2z"/>
				<path class="st0" d="M740.66,952.86h4.29v31.75h18.93v3.91h-23.22V952.86z"/>
				<path class="st0" d="M770.22,975.12v-22.26h4.31v22.02c0,6.26,3.95,10.22,10.22,10.22c6.18,0,10.17-3.81,10.17-10.22v-22.02
					h4.31v22.26c0,8.61-5.67,13.88-14.53,13.88C775.36,989,770.22,983.48,770.22,975.12z"/>
				<path class="st0" d="M819.95,956.67v31.84h-4.34v-31.84h-11.55v-3.82h27.39v3.82H819.95z"/>
				<path class="st0" d="M837.56,952.86h4.29v35.66h-4.29V952.86z"/>
				<path class="st0" d="M849.96,970.81v-0.2c0-11.89,6.47-18.19,16.77-18.19c10.32,0,16.84,6.3,16.84,18.19v0.2
					c0,11.93-6.37,18.19-16.84,18.19C856.28,989,849.96,982.74,849.96,970.81z M878.91,973.2v-4.98c0-7-4.1-11.98-12.18-11.98
					c-8.06,0-12.16,4.98-12.16,11.98v4.98c0,7.15,4.29,11.99,12.16,11.99C874.62,985.19,878.91,980.35,878.91,973.2z"/>
				<path class="st0" d="M891.62,952.86h5.52l18.1,27.98l0.82,1.47h0.23v-29.45h4.21v35.66h-5.37l-18.4-28.17l-0.68-1.27h-0.25
					v29.44h-4.19V952.86z"/>
				<path class="st0" d="M928.85,977.41h4.46c0.23,5.63,3.72,8.03,9.39,8.03c5.92,0,8.76-2.55,8.76-6.61c0-4.99-4.65-5.82-9.98-6.94
					c-6.26-1.28-11.55-3.24-11.55-9.69c0-6.11,5.05-9.83,12.67-9.83c8.27,0,12.73,4.11,12.86,10.51h-4.48
					c-0.21-4.35-2.83-6.99-8.46-6.99c-4.84,0-7.89,2.29-7.89,5.92c0,4.45,4.21,5.28,9.39,6.3c6.32,1.17,12.14,3.18,12.14,10.42
					c0,7.1-5.44,10.47-13.56,10.47C933.41,989,928.85,984.16,928.85,977.41z"/>
			</g>
		</g>
	</g>
	<g>
		<g>
			<g>
				<polygon class="st0" points="676.68,680.66 540.11,680.66 540.11,642.4 608.83,563.18 				"/>
			</g>
			<g>
				<polygon class="st0" points="672.59,489.66 630.3,538.42 712.43,680.66 818.95,680.66 818.95,574.14 				"/>
			</g>
			<g>
				<polygon class="st0" points="748.75,401.82 701.84,455.92 693.26,465.8 818.95,538.36 818.95,401.82 				"/>
			</g>
			<g>
				<polygon class="st0" points="693.26,306.86 748.75,370.84 818.95,370.84 818.95,234.3 				"/>
			</g>
			<g>
				<polygon class="st0" points="712.43,92 630.3,234.27 672.59,283.04 818.95,198.52 818.95,92 				"/>
			</g>
			<g>
				<polygon class="st0" points="540.11,92 540.11,130.26 608.83,209.51 676.68,92 				"/>
			</g>
			<g>
				<polygon class="st0" points="372.59,92 441.13,210.75 509.13,132.37 509.13,92 				"/>
			</g>
			<g>
				<polygon class="st0" points="617.86,389.63 528.2,492.94 438.54,389.63 528.2,286.11 				"/>
				<path class="st0" d="M525.38,160.71L329.82,386.38l195.56,225.67l195.78-225.67L525.38,160.71z M395.66,389.63l132.54-152.9
					l132.76,152.9L528.2,542.53L395.66,389.63z"/>
			</g>
			<g>
				<polygon class="st0" points="302.2,401.82 230.29,401.82 230.29,538.39 357.13,465.18 				"/>
			</g>
			<g>
				<polygon class="st0" points="458.17,581.67 441.09,561.97 372.59,680.66 509.13,680.66 509.13,640.41 				"/>
			</g>
			<g>
				<polygon class="st0" points="377.8,489 230.29,574.17 230.29,680.66 336.81,680.66 419.62,537.21 				"/>
			</g>
			<g>
				<polygon class="st0" points="230.29,234.27 230.29,370.84 302.2,370.84 357.13,307.51 				"/>
			</g>
			<g>
				<polygon class="st0" points="336.81,92 230.29,92 230.29,198.52 377.83,283.69 419.62,235.51 				"/>
			</g>
			<g>
				<g>
					<polygon class="st0" points="617.86,389.63 528.2,492.94 438.54,389.63 528.2,286.11 					"/>
				</g>
			</g>
		</g>
	</g>
</g>
</svg>
